<svg width="84" height="84" viewBox="0 0 84 84" fill="none" xmlns="http://www.w3.org/2000/svg">
<path d="M20.014 63.9861C7.87126 51.8434 7.87126 32.1564 20.014 20.0137C32.1562 7.87107 51.8438 7.87107 63.9857 20.0137C76.1284 32.1564 76.1284 51.8434 63.9857 63.9861C51.8438 76.1279 32.1562 76.1279 20.014 63.9861ZM71.6984 12.3018C55.2967 -4.10071 28.7033 -4.10071 12.3011 12.3018C-4.10037 28.7028 -4.10037 55.2963 12.3011 71.698C28.7033 88.1006 55.2967 88.1006 71.6984 71.698C88.1002 55.2963 88.1002 28.7028 71.6984 12.3018Z" fill="#CC636F"/>
<path d="M50.0206 45.9802C48.0517 44.0113 48.0517 40.8201 50.0206 38.8513C51.9887 36.8824 55.1807 36.8824 57.1496 38.8513C59.1184 40.8201 59.1184 44.0113 57.1496 45.9802C55.1807 47.9482 51.9887 47.9482 50.0206 45.9802ZM38.8514 57.1491C36.8827 55.1802 36.8827 51.989 38.8514 50.0201C40.8197 48.0513 44.0117 48.0513 45.9805 50.0201C47.9492 51.989 47.9492 55.1802 45.9805 57.1491C44.0117 59.1179 40.8197 59.1179 38.8514 57.1491ZM38.0197 33.979C36.051 32.0109 36.051 28.8197 38.0197 26.8508C39.9884 24.882 43.1803 24.882 45.1488 26.8508C47.1175 28.8197 47.1175 32.0109 45.1488 33.979C43.1803 35.9487 39.9884 35.9487 38.0197 33.979ZM26.8507 45.1487C24.882 43.1798 24.882 39.9878 26.8507 38.0197C28.8194 36.0509 32.0114 36.0509 33.9797 38.0197C35.9484 39.9878 35.9484 43.1798 33.9797 45.1487C32.0114 47.1175 28.8194 47.1175 26.8507 45.1487ZM61.2778 22.7226C50.6314 12.0746 33.369 12.0746 22.7223 22.7218C12.0755 33.369 12.0755 50.6309 22.7223 61.2773C33.369 71.9245 50.6314 71.9245 61.2778 61.2773C71.925 50.6309 71.925 33.369 61.2778 22.7226Z" fill="#CC636F"/>
</svg>
