<svg width="252" height="254" viewBox="0 0 252 254" fill="none" xmlns="http://www.w3.org/2000/svg">
<path d="M34.7796 194.98C21.0301 171.542 23.9689 141.297 38.4895 118.278C45.8964 106.536 56.3461 95.6059 57.7709 82.0043C59.4194 66.2649 48.3941 51.5032 48.3681 35.6871C48.3452 21.8248 57.6929 8.34389 71.1568 2.82332C84.6211 -2.69808 101.432 0.0558474 112.141 9.53709C132.053 27.1658 129.949 62.6002 154.499 73.8619C164.199 78.3108 175.524 77.4546 186.297 77.8848C197.071 78.3146 209.034 80.8768 214.892 89.4269C220.25 97.2475 218.71 107.617 215.278 116.35C211.846 125.082 206.704 133.342 205.218 142.551C203.564 152.807 206.614 163.198 206.643 173.573C206.701 194.316 193.57 214.61 174 224.025C149.863 235.637 126.029 224.013 100.992 225.823C74.3251 227.751 48.225 217.9 34.7796 194.98Z" fill="#FEE799"/>
<path d="M209.074 61.8306C215.255 59.3023 221.04 54.6921 222.368 48.456C223.269 44.226 222 39.8322 220.105 35.9062C215.28 25.9114 205.814 17.647 194.43 15.3911C183.047 13.1346 170.078 17.7085 164.308 27.2464C148.1 54.0409 187.204 70.7749 209.074 61.8306Z" fill="#FEE799"/>
<path d="M245.734 223.034C230.977 213.609 188.69 206.804 138.816 206.804C88.9425 206.804 46.6554 213.609 31.8981 223.034H26.2961V230.402C26.2961 243.435 76.673 254 138.816 254C200.959 254 251.336 243.435 251.336 230.402V223.034H245.734Z" fill="#81383F"/>
<path d="M251.336 223.034C251.336 236.067 200.959 246.632 138.816 246.632C76.673 246.632 26.2961 236.067 26.2961 223.034C26.2961 210.001 76.673 199.436 138.816 199.436C200.959 199.436 251.336 210.001 251.336 223.034Z" fill="#B1483C"/>
<path d="M169.941 108.398C172.098 105.451 171.728 101.35 169.979 98.1709C168.229 94.991 165.321 92.5407 162.431 90.2186C159.542 87.8966 156.553 85.5699 154.554 82.5247C150.916 76.9825 151.282 69.3444 155.434 64.1351C157.503 61.5395 160.347 59.5816 162.535 57.0754C167.041 51.9168 168.365 44.4447 165.883 38.1823C163.4 31.9195 157.206 27.1056 150.221 26.0094C143.237 24.9136 135.727 27.5778 131.234 32.746C124.648 27.0629 113.351 24.6803 104.944 27.4977C96.5355 30.3147 90.0611 37.7348 88.7399 46.0673C87.6729 52.798 89.6675 60.0846 86.5677 66.228C81.8154 75.6483 67.5454 77.7425 62.2964 86.9244C59.0244 92.6491 60.1403 99.7045 62.2161 105.907C64.2919 112.11 67.2661 118.194 67.4997 124.696C67.727 131.025 65.4212 137.858 68.6564 143.405C71.9077 148.979 79.3411 150.786 85.9755 151.902C99.737 154.217 114.3 155.84 127.38 151.182C136.836 147.815 144.783 141.363 151.142 133.944C157.5 126.526 164.196 116.251 169.941 108.398Z" fill="#80473F"/>
<path d="M62.2161 105.907C60.1403 99.7045 59.0244 92.6491 62.2964 86.9244C63.41 84.9771 64.9317 83.3499 66.6802 81.9026C63.5374 87.9626 63.6481 95.6249 67.6723 101.262C70.907 105.793 76.1467 108.939 78.7206 113.833C81.5038 119.126 80.6847 125.551 83.1035 131.001C85.8558 137.202 92.7323 141.325 99.8249 141.903C106.918 142.48 114.05 139.823 119.501 135.498C124.325 131.67 127.902 126.665 131.892 122.06C135.882 117.455 140.571 113.058 146.546 111.17C149.871 110.118 153.443 109.897 156.759 108.82C160.075 107.743 163.317 105.462 163.919 102.2C164.81 97.3715 159.865 93.6212 156.978 89.5488C155.338 87.2348 154.4 84.5494 154.116 81.7913C154.257 82.0377 154.397 82.2854 154.554 82.5246C156.553 85.5699 159.542 87.8966 162.431 90.2186C165.321 92.5407 168.229 94.991 169.979 98.1709C171.728 101.35 172.098 105.451 169.941 108.398C164.196 116.251 157.5 126.526 151.142 133.944C144.783 141.363 136.836 147.815 127.38 151.182C114.3 155.84 99.737 154.217 85.9755 151.902C79.3411 150.786 71.9077 148.979 68.6564 143.405C65.4212 137.858 67.727 131.025 67.4997 124.696C67.2661 118.194 64.2919 112.11 62.2161 105.907Z" fill="#532E3B"/>
<path d="M148.445 29.7775C142.219 29.5281 135.941 32.293 132.142 36.9582C126.78 33.2918 120.063 30.9325 113.474 30.3368C106.885 29.741 99.8844 31.5431 95.1926 35.9531C92.1036 38.8573 90.1618 42.7053 89.0069 46.6745C88.7989 47.3901 88.6218 48.1116 88.4573 48.8356C88.5097 47.9054 88.5949 46.981 88.7397 46.0673C90.061 37.7348 96.5353 30.3148 104.943 27.4977C113.351 24.6803 124.648 27.0629 131.234 32.7461C135.727 27.5778 143.237 24.9136 150.221 26.0094C157.206 27.1057 163.4 31.9195 165.882 38.1824C166.943 40.8588 167.303 43.7558 167.023 46.5995C166.748 43.639 165.746 40.7385 164.045 38.2365C160.678 33.2842 154.671 30.0273 148.445 29.7775Z" fill="#9F5B46"/>
<path d="M158.094 53.1295C157.924 51.0153 157.315 48.6916 156.101 46.5139C154.899 44.3388 153.102 42.3212 150.871 40.9057C148.635 39.4966 145.975 38.6963 143.389 38.4753C140.794 38.2445 138.287 38.5977 136.152 39.2544C137.955 37.9981 140.542 37.0585 143.426 36.9633C146.296 36.8494 149.449 37.5797 152.059 39.2298C154.669 40.8807 156.585 43.356 157.567 45.905C158.572 48.4595 158.638 51.0767 158.094 53.1295Z" fill="#9F5B46"/>
<path d="M150.192 47.6085C149.704 46.6452 149.063 45.6031 148.229 44.6195C147.397 43.6355 146.377 42.7124 145.225 41.9689C144.072 41.2275 142.79 40.6665 141.517 40.2951C140.243 39.9195 138.982 39.7362 137.854 39.6583C138.949 39.3987 140.297 39.3225 141.703 39.5541C143.108 39.7798 144.564 40.3133 145.831 41.1301C147.099 41.9469 148.156 43.0325 148.891 44.1851C149.632 45.3376 150.048 46.5508 150.192 47.6085Z" fill="#9F5B46"/>
<path d="M97.6935 53.3197C99.8598 52.9242 102.27 52.3437 104.708 51.452C107.147 50.5666 109.61 49.3776 111.898 47.9325C114.179 46.4793 116.276 44.7755 118.066 42.9776C119.862 41.1828 121.342 39.296 122.549 37.5515C121.984 39.5598 120.904 41.8069 119.279 43.9219C117.664 46.0402 115.518 48.0168 113.066 49.5758C110.611 51.1298 107.862 52.259 105.175 52.8696C102.487 53.4899 99.8764 53.5848 97.6935 53.3197Z" fill="#9F5B46"/>
<path d="M98.6104 42.7374C101.847 42.7772 105.949 42.5134 109.893 41.5103C113.846 40.5386 117.549 38.8512 120.341 37.3032C119.263 38.4422 117.816 39.6049 116.089 40.5919C114.366 41.5819 112.369 42.3936 110.287 42.9161C108.205 43.4348 106.044 43.663 104.028 43.608C102.011 43.5571 100.144 43.2231 98.6104 42.7374Z" fill="#9F5B46"/>
<path d="M78.157 134.182L72.2184 152.885L46.0609 146.095L61.8427 112.364C65.658 104.208 74.3395 99.0609 83.7751 99.3603L106.375 100.077C107.649 103.661 110.349 106.798 113.86 108.625C118.246 110.908 123.786 111.095 128.333 109.113C132.064 107.486 135.049 104.432 136.557 100.829L155.285 99.7172C164.919 99.1452 173.915 104.284 177.853 112.607L183.464 124.466L166.924 141.537V206.415L72.2184 210.734C72.2184 198.076 79.2989 184.899 84.1127 177.403C86.8331 173.167 87.6029 168.07 86.2673 163.279L78.157 134.182Z" fill="#978FCF"/>
<path d="M78.157 134.182L79.5751 134.977C83.1949 137.007 85.9118 140.208 87.2223 143.986L89.2528 149.84L83.9068 154.81L78.157 134.182Z" fill="#6360A3"/>
<path d="M105.783 108.983C107.944 110.426 110.56 111.784 113.511 112.691C116.453 113.604 119.714 114.065 122.935 113.879C126.157 113.686 129.332 112.846 132.131 111.595C134.94 110.349 137.358 108.695 139.312 107.01C138.02 109.186 135.887 111.441 133.05 113.153C130.23 114.873 126.72 116.038 123.092 116.252C119.464 116.465 115.828 115.72 112.804 114.344C109.763 112.978 107.351 110.991 105.783 108.983Z" fill="#6360A3"/>
<path d="M110.175 116.718C112.843 117.63 116.342 118.447 119.913 118.515C123.484 118.614 127.022 117.963 129.735 117.177C128.57 117.941 127.073 118.642 125.37 119.113C123.671 119.588 121.773 119.832 119.88 119.789C117.986 119.743 116.104 119.411 114.432 118.857C112.756 118.306 111.297 117.536 110.175 116.718Z" fill="#6360A3"/>
<path d="M72.6906 102.552C74.4408 104.045 76.1987 106.089 77.6097 108.543C79.0273 110.99 80.0939 113.836 80.6381 116.773C81.1761 119.711 81.1905 122.729 80.7314 125.485C80.2813 128.245 79.3577 130.729 78.2445 132.693C78.6507 130.494 78.9887 127.994 79.0537 125.341C79.125 122.69 78.9273 119.89 78.4252 117.137C77.9132 114.385 77.0977 111.687 76.0822 109.214C75.0721 106.738 73.8598 104.493 72.6906 102.552Z" fill="#6360A3"/>
<path d="M50.7092 142.214C56.6191 142.862 65.7862 145.302 71.1846 147.664C65.2746 147.017 56.1076 144.576 50.7092 142.214Z" fill="#6360A3"/>
<path d="M145.88 100.275L150.931 129.269H146.451L142.644 100.467L145.88 100.275Z" fill="#4F4A86"/>
<path d="M101.91 99.9352L104.256 129.794H99.4112L98.3953 99.8239L101.91 99.9352Z" fill="#4F4A86"/>
<path d="M150.931 129.269H146.451L146.069 126.377L150.422 126.344L150.931 129.269Z" fill="#37345D"/>
<path d="M104.013 126.702L104.256 129.794H99.4112L99.3076 126.738L104.013 126.702Z" fill="#37345D"/>
<path d="M166.924 141.046C160.607 138.955 156.583 133.231 155.381 129.972C155.118 129.256 154.399 128.784 153.596 128.792L98.006 129.357C97.1883 129.365 96.4741 129.871 96.2369 130.61C93.043 140.563 82.5327 152.393 82.5327 152.393L85.2079 161.532C86.7663 166.857 85.862 172.574 82.6529 177.194C72.4282 191.91 70.6555 205.831 70.6555 210.29L72.2184 210.242L166.924 205.924V141.046Z" fill="#4F4A86"/>
<path d="M97.5282 180.869C101.508 180.45 105.998 179.879 110.679 178.941C115.359 178.011 120.225 176.719 124.958 175.072C129.685 173.414 134.27 171.403 138.464 169.232C142.664 167.067 146.466 164.741 149.776 162.613C147.343 165.607 144.024 168.736 139.996 171.507C135.978 174.284 131.262 176.697 126.278 178.443C121.29 180.181 116.047 181.248 111.083 181.609C106.115 181.982 101.439 181.647 97.5282 180.869Z" fill="#37345D"/>
<path d="M100.978 172.557C106.144 172.123 112.728 171.552 119.221 170.404C125.719 169.29 132.086 167.605 137.076 166.271C134.922 167.631 132.264 168.966 129.288 170.084C126.313 171.205 123.022 172.108 119.668 172.695C116.312 173.277 112.897 173.542 109.694 173.496C106.491 173.454 103.504 173.103 100.978 172.557Z" fill="#37345D"/>
<path d="M148.467 135.05H150.085C151.013 135.05 151.765 134.34 151.765 133.464V133.463C151.765 132.587 151.013 131.877 150.085 131.877H148.467C147.54 131.877 146.788 132.587 146.788 133.463V133.464C146.788 134.34 147.54 135.05 148.467 135.05Z" fill="#D2C9E9"/>
<path d="M100.973 135.05H102.59C103.518 135.05 104.27 134.34 104.27 133.464V133.463C104.27 132.587 103.518 131.877 102.59 131.877H100.973C100.045 131.877 99.2932 132.587 99.2932 133.463V133.464C99.2932 134.34 100.045 135.05 100.973 135.05Z" fill="#D2C9E9"/>
<path d="M114.264 184.274C115.01 184.235 115.757 184.206 116.504 184.189C123.311 184.033 130.162 184.777 136.91 183.916C143.657 183.055 150.576 180.246 154.108 174.749C157.819 168.973 157.028 161.664 155.92 154.989C155.291 151.197 154.621 147.369 154.707 143.517C154.75 141.641 154.967 139.761 155.483 137.945C155.636 137.408 157.41 133.708 157.131 133.332C159.63 136.693 162.723 139.655 166.924 141.046V205.924L72.2184 210.242L70.6555 210.29C70.6555 208.011 71.1222 203.254 72.9416 197.186C76.0862 195.468 79.3971 194.504 82.5614 193.021C86.1584 191.335 89.6437 189.61 93.433 188.311C100.12 186.021 107.161 184.648 114.264 184.274Z" fill="#37345D"/>
<path d="M128.333 109.112C123.786 111.094 118.246 110.908 113.86 108.625C110.349 106.798 107.649 103.661 106.375 100.077L110.038 100.193L110.194 85.7777H132.334L133.018 101.039L136.557 100.829C135.049 104.432 132.064 107.486 128.333 109.112Z" fill="#F8A084"/>
<path d="M110.757 89.4433C110.547 89.0741 110.35 88.7176 110.166 88.3734L110.194 85.7778H132.334L132.652 92.8646C123.166 104.252 114.133 95.3721 110.757 89.4433Z" fill="#F57E74"/>
<path d="M146.676 72.8465C147.433 71.6753 148.431 70.6117 149.705 69.9528C150.979 69.2936 152.553 69.0785 153.908 69.5739C155.909 70.3055 157.025 72.415 157.166 74.4368C157.383 77.5545 155.569 80.7196 152.687 82.2532C149.805 83.7868 145.998 83.6115 143.287 81.8205C144.36 78.8887 144.965 75.4945 146.676 72.8465Z" fill="#F57E74"/>
<path d="M153.519 71.5855C150.912 73.474 149.067 76.2762 148.424 79.3193C148.275 80.0256 148.276 80.9224 148.942 81.2738C149.499 81.5681 150.203 81.287 150.704 80.9144C152.448 79.6191 153.063 77.1387 152.108 75.2469C152.438 73.988 152.701 72.6272 153.519 71.5855Z" fill="#E16F6F"/>
<path d="M148.603 59.4718C148.727 64.9212 148.558 70.4359 146.996 75.6829C145.434 80.9299 142.541 85.9132 138.193 89.4974C133.845 93.0817 127.964 95.1501 122.236 94.4828C117.568 93.9395 113.27 91.6497 109.8 88.6519C106.33 85.654 103.611 81.9677 101.121 78.1993C100.677 80.6721 97.7549 82.5144 95.1062 82.6973C92.4579 82.8806 89.8387 81.532 88.2489 79.5233C86.6596 77.5142 86.0252 74.9296 86.1126 72.423C86.1799 70.4884 86.7676 68.4013 88.4215 67.2581C90.4027 65.8896 93.3164 66.3799 95.2582 67.7975C97.1999 69.2151 98.3781 71.3521 99.4249 73.4485C100.676 70.3156 101.229 66.7678 100.781 63.446C112.966 60.7141 123.282 50.8755 125.531 39.2395C141.294 41.8926 148.525 56.0925 148.603 59.4718Z" fill="#F8A084"/>
<path d="M91.5559 69.7958C94.0406 71.1935 95.8366 73.6384 96.3522 76.3258C96.4898 77.0448 96.5019 77.8836 95.9478 78.3934C95.4434 78.8579 94.6301 78.8769 93.9608 78.6707C92.6481 78.2663 91.6555 77.0651 91.5591 75.7648C91.4627 74.4636 92.2688 73.1438 93.5089 72.5709C92.8651 71.7355 92.1997 70.6312 91.5559 69.7958Z" fill="#F57E74"/>
<path d="M128.669 43.7033C124.792 53.6388 114.753 63.4461 100.781 63.4461C112.966 60.7142 123.282 50.8756 125.53 39.2396C141.294 41.8927 148.525 56.0926 148.603 59.4719C144.607 51.8685 137.286 46.1168 128.669 43.7033Z" fill="#F57E74"/>
<path d="M107.963 59.7032C112.02 59.0804 116.078 58.4575 120.136 57.8347C118.453 56.3383 115.968 55.5385 113.678 55.8357C111.389 56.133 109.156 57.8334 107.963 59.7032Z" fill="#80473F"/>
<path d="M146.158 61.6457C142.664 60.8086 139.17 59.9715 135.675 59.1348C136.847 57.2997 139.287 56.3576 141.506 56.8043C143.725 57.251 145.881 59.5188 146.158 61.6457Z" fill="#80473F"/>
<path d="M112.486 68.1404C112.486 69.3221 113.501 70.2808 114.753 70.2808C116.004 70.2808 117.018 69.3221 117.018 68.1404C117.018 66.9582 116.004 66.0004 114.753 66.0004C113.501 66.0004 112.486 66.9582 112.486 68.1404Z" fill="#2A2A44"/>
<path d="M136.385 68.7554C136.385 69.9371 137.399 70.8953 138.651 70.8953C139.902 70.8953 140.917 69.9371 140.917 68.7554C140.917 67.5732 139.902 66.615 138.651 66.615C137.399 66.615 136.385 67.5732 136.385 68.7554Z" fill="#2A2A44"/>
<path d="M123.428 74.8209C125.955 74.5342 128.521 74.5525 131.043 74.8743C130.099 75.926 128.963 76.8012 127.504 76.8067C126.045 76.8122 124.381 75.8651 123.428 74.8209Z" fill="#F57E74"/>
<path d="M116.655 80.2932C122.456 80.0353 128.286 80.3791 134.007 81.3162C132.362 84.2814 128.645 86.3324 125.106 86.1436C121.567 85.9548 117.937 83.4147 116.655 80.2932Z" fill="white"/>
<path d="M120.503 88.4154C123.105 88.8413 125.776 88.8803 128.389 88.531C127.371 89.5044 126.083 90.2801 124.634 90.2581C123.186 90.2361 121.488 89.4197 120.503 88.4154Z" fill="#F57E74"/>
<path d="M115.455 75.7444C114.983 77.4813 111.924 78.2413 108.621 77.4411C105.319 76.6412 103.024 74.5842 103.496 72.8474C103.968 71.1105 107.027 70.3505 110.33 71.1507C113.632 71.9506 115.927 74.0075 115.455 75.7444Z" fill="#F46A9A"/>
<path d="M137.936 75.9878C138.408 77.7247 140.781 78.6507 143.236 78.0558C145.691 77.4613 147.298 75.5707 146.827 73.8339C146.355 72.097 143.982 71.171 141.527 71.7654C139.072 72.3603 137.464 74.2505 137.936 75.9878Z" fill="#F46A9A"/>
<path d="M119.799 144.003C118.015 144.146 117.968 147.053 118.312 150.891C118.656 154.728 119.26 158.043 121.045 157.901C121.383 157.874 121.698 157.736 121.985 157.505C120.969 156.535 120.54 153.872 120.272 150.886C119.991 147.75 119.973 145.237 120.948 144.345C120.577 144.099 120.19 143.972 119.799 144.003Z" fill="#ACA3D9"/>
<path d="M115.495 139.303L145.181 115.817C139.894 129.876 126.977 134.059 121.712 136.304L116.601 140.832L115.495 139.303Z" fill="#E3DBF0"/>
<path d="M116.837 140.666C117.921 142.013 115.669 143.995 112.424 146.327C109.178 148.659 106.168 150.458 105.084 149.112C104.879 148.858 104.776 148.543 104.765 148.187C106.209 148.25 108.587 146.765 111.113 144.95C113.765 143.044 115.751 141.372 115.799 140.09C116.24 140.186 116.599 140.371 116.837 140.666Z" fill="#ACA3D9"/>
<path d="M121.489 151.762C122.312 151.701 123.162 151.643 123.945 151.903C124.728 152.164 125.437 152.826 125.484 153.644C125.538 154.598 124.684 155.4 123.765 155.682C122.845 155.963 121.859 155.866 120.896 155.88C117.099 155.934 113.557 157.725 109.817 158.383C106.505 158.966 103.035 158.635 99.8961 157.435C98.5435 156.919 97.2057 156.207 96.3449 155.049C95.4836 153.892 95.2187 152.204 96.0346 151.015C96.8927 149.765 98.5856 149.434 100.105 149.334C103.803 149.087 107.548 149.586 111.053 150.776C112.557 151.286 113.906 152.278 115.5 152.204C117.497 152.11 119.495 151.909 121.489 151.762Z" fill="#F57E74"/>
<path d="M63.4669 156.427L91.1281 153.918L97.3186 146.72C99.1429 144.599 101.873 143.355 104.766 143.337C109.043 143.31 113.87 143.536 117.15 144.776C117.74 144.999 118.336 145.245 118.801 145.653C119.266 146.061 119.584 146.666 119.474 147.257C119.325 148.062 118.431 148.583 117.569 148.653C116.707 148.723 115.861 148.453 115.029 148.23C110.784 147.09 106.195 147.12 101.968 148.315C106.559 148.885 111.07 150.23 115.267 152.079C116.441 152.597 117.655 153.212 118.165 154.405C118.329 154.79 118.375 155.222 118.28 155.628C117.978 156.917 116.76 157.171 115.741 156.958C115.098 156.823 114.51 156.525 113.918 156.254C109.633 154.295 104.671 153.689 99.9992 154.553C104.596 155.529 109.156 158.007 112.614 161.028C113.175 161.518 113.726 162.048 114.027 162.711C114.328 163.374 114.331 164.203 113.85 164.762C113.404 165.28 112.636 165.468 111.934 165.403C111.231 165.339 110.573 165.061 109.93 164.786C106.851 163.47 103.771 162.155 100.691 160.839C103.306 163.256 106.02 165.631 109.28 167.198C110.017 167.553 110.855 167.976 110.83 168.875C110.815 169.367 110.488 169.811 110.037 170.059C109.065 170.596 107.966 170.34 106.971 170.018C104.268 169.143 101.75 167.763 99.6042 165.982C96.9062 167.064 93.9952 167.389 91.2079 166.534L54.8239 178.961C51.0835 180.239 46.905 179.528 43.8707 177.099C40.2599 174.209 38.9871 169.473 40.701 165.306L48.3581 146.692L66.0067 151.273L63.4669 156.427Z" fill="#F8A084"/>
<path d="M48.3582 146.691L66.0068 151.273L64.4309 154.471L47.9753 147.622L48.3582 146.691Z" fill="#F57E74"/>
<path d="M49.3114 157.712L63.467 156.427L63.8952 155.558C54.4027 153.033 49.3114 157.712 49.3114 157.712Z" fill="#F57E74"/>
<path d="M121.771 144.029L120.316 107.481C112.817 120.612 118.191 132.468 119.958 137.663L119.828 144.279L121.771 144.029Z" fill="#E3DBF0"/>
<path d="M121.76 143.998L119.799 144.003C120.19 143.972 120.577 144.099 120.948 144.345C122.272 145.22 123.385 147.696 123.654 150.694C123.932 153.805 123.217 156.515 121.985 157.505C121.698 157.736 121.383 157.874 121.045 157.901L123.006 157.896C124.791 157.753 125.958 154.526 125.614 150.689C125.27 146.851 123.545 143.855 121.76 143.998Z" fill="#E3DBF0"/>
<path d="M115.526 139.289L116.837 140.666C116.599 140.372 116.24 140.186 115.798 140.09C114.223 139.75 111.532 140.63 108.997 142.452C106.366 144.343 104.717 146.661 104.765 148.188C104.776 148.544 104.879 148.858 105.084 149.112L103.773 147.735C102.689 146.389 104.44 143.407 107.686 141.075C110.931 138.743 114.442 137.943 115.526 139.289Z" fill="#E3DBF0"/>
<path d="M201.627 233.392C200.079 233.874 198.611 234.589 197.301 235.502C194.552 237.417 193.33 240.073 189.933 241.215C181.297 244.118 172.973 235.506 163.818 235.063C150.091 234.401 141.499 251.598 127.766 252.115C120.78 252.378 114.622 248.184 108.77 244.572C102.918 240.959 95.7927 237.646 89.1878 239.811C85.3748 241.061 82.1114 244.061 78.0755 244.082C72.1261 244.113 68.5462 237.961 63.4222 235.106C57.2608 231.672 49.523 233.313 42.3869 233.793C35.2508 234.274 24.6415 232.423 22.6729 225.927C49.5669 203.171 83.811 193.788 119.303 192.23C125.771 191.946 132.298 191.927 138.632 190.658C144.967 189.39 151.215 186.731 155.379 182.047C160.936 175.798 161.949 167.01 161.504 158.86C161.06 150.71 159.41 142.527 160.599 134.443C162.077 124.395 168.131 115.023 176.915 109.184C181.489 106.143 189.343 107.921 193.277 111.676C195.866 114.146 197.729 117.73 201.296 118.587C205.261 119.54 208.956 116.603 212.82 115.335C217.312 113.861 222.382 114.703 226.62 116.737C230.859 118.772 234.39 121.899 237.676 125.144C240.642 128.072 243.569 131.329 244.417 135.301C245.548 140.603 242.692 145.985 238.994 150.114C235.296 154.244 230.696 157.625 227.272 161.961C224.16 165.902 221.934 170.862 221.21 175.724C220.635 179.585 221.254 184.105 224.631 186.349C227.461 188.231 231.239 187.894 234.672 188.304C238.106 188.715 242.04 190.789 241.854 194.053C241.771 195.505 240.85 196.821 240.742 198.272C240.599 200.208 241.936 201.983 243.509 203.234C245.081 204.484 246.938 205.397 248.439 206.723C250.623 208.652 251.937 211.434 251.998 214.258C252.02 215.28 251.876 216.331 251.358 217.229C250.219 219.204 247.499 219.963 245.15 219.595C241.41 219.011 238.661 215.825 234.811 215.661C230.146 215.463 227.618 218.818 226.022 222.43C225.261 224.155 224.498 225.88 223.736 227.605C222.905 229.487 221.992 231.467 220.235 232.65C218.431 233.865 216.047 234.012 213.849 233.751C211.651 233.491 209.507 232.871 207.297 232.715C205.382 232.579 203.449 232.824 201.627 233.392Z" fill="#F35C72"/>
<path d="M226.535 124.741C226.544 126.424 225.957 128.119 226.323 129.767C226.953 132.603 230.167 134.37 231.017 137.155C231.809 139.75 230.294 142.533 228.201 144.373C226.109 146.214 223.479 147.4 221.157 148.975C215.571 152.763 211.872 158.934 211.307 165.406C210.732 171.996 210.641 179.888 215.706 184.452C218.997 187.418 223.666 189.584 224.834 193.736C221.883 195.752 216.922 193.562 214.499 196.13C213.176 197.532 213.401 199.794 214.482 201.369C215.562 202.945 217.302 203.991 218.995 204.974C220.689 205.957 222.442 206.97 223.577 208.511C225.227 210.749 225.275 213.769 224.401 216.368C223.527 218.966 221.842 221.242 220.182 223.473C222.82 221.523 224.868 218.989 226.79 216.398C228.712 213.807 231.672 211.403 234.999 211.774C237.899 212.097 240.032 214.385 242.484 215.882C243.358 216.415 244.329 216.865 245.368 216.918C246.406 216.971 247.522 216.553 248.031 215.696C248.634 214.681 248.249 213.404 247.716 212.355C246.764 210.482 245.38 208.812 244.582 206.876C244.14 205.803 243.923 204.67 243.903 203.531C243.771 203.433 243.637 203.336 243.509 203.234C241.936 201.983 240.599 200.208 240.743 198.272C240.85 196.821 241.771 195.505 241.854 194.052C242.04 190.789 238.106 188.714 234.673 188.304C231.239 187.894 227.461 188.23 224.631 186.349C221.254 184.105 220.635 179.585 221.21 175.723C221.934 170.862 224.161 165.902 227.272 161.961C230.696 157.625 235.296 154.244 238.994 150.114C242.692 145.984 245.548 140.603 244.417 135.301C243.57 131.329 240.642 128.072 237.676 125.144C234.39 121.899 230.859 118.772 226.621 116.737C223.319 115.153 219.515 114.298 215.871 114.69C217.438 115.072 218.96 115.578 220.388 116.301C223.734 117.996 226.516 121.155 226.535 124.741Z" fill="#DC5260"/>
<path d="M181.454 222.387C181.064 223.728 180.609 225.124 180.915 226.485C181.22 227.845 182.615 229.103 184.044 228.77C185.472 228.437 186.06 226.866 187.067 225.853C189.37 223.538 193.892 224.201 195.966 221.7C197.025 220.423 197.113 218.62 196.664 217.054C196.215 215.489 195.3 214.086 194.483 212.659C192.285 208.825 190.73 204.664 189.892 200.377C189.298 197.335 189.024 194.128 187.333 191.48C186.29 189.845 183.203 187.135 180.949 188.221C178.569 189.369 179.941 192.566 180.548 194.264C182.618 200.057 183.501 206.224 183.163 212.329C182.974 215.726 182.407 219.106 181.454 222.387Z" fill="#F57D90"/>
<path d="M163.133 213.599C163.801 212.594 164.77 211.451 166.01 211.644C166.837 211.774 167.438 212.508 167.632 213.278C167.825 214.048 167.693 214.853 167.561 215.636C166.89 219.6 166.22 223.565 165.549 227.529C165.384 228.503 165.161 229.573 164.335 230.176C163.089 231.082 161.326 230.423 159.788 230.11C157.739 229.693 155.578 230.945 153.731 230.501C151.282 229.913 153.758 227.699 154.606 226.423C157.449 222.149 160.29 217.874 163.133 213.599Z" fill="#F57D90"/>
<path d="M123.394 227.431C124.116 229.274 126.512 230.177 128.554 229.797C130.595 229.417 132.279 228.032 133.535 226.464C134.79 224.897 135.714 223.116 136.893 221.497C138.447 219.365 140.43 217.535 141.988 215.405C142.56 214.623 145.81 209.009 143.858 208.622C142.792 208.41 140.141 212.657 139.564 213.318C134.906 218.663 129.344 223.402 123.394 227.431Z" fill="#F57D90"/>
<path d="M55.4548 217.437C59.5647 216.344 63.211 214.104 66.7716 211.879C74.7972 206.861 83.0663 201.635 92.141 198.936C93.2089 198.618 92.8605 197.115 91.7496 197.247C88.8619 197.589 85.9876 198.27 83.1887 199.025C76.0252 200.955 69.0115 203.38 62.2193 206.268C58.7945 207.724 55.4257 209.299 52.1224 210.987C50.2273 211.955 46.0659 213.557 46.3465 216.246C46.6693 219.337 53.4656 217.966 55.4548 217.437Z" fill="#F57D90"/>
<path d="M166.136 128.788C165.548 130.433 165.173 132.447 166.396 133.744C167.042 134.43 168.009 134.754 168.948 134.991C170.478 135.377 172.053 135.601 173.635 135.658C174.326 135.683 175.124 135.629 175.537 135.105C176.198 134.269 175.312 133.124 174.414 132.517C173.515 131.909 172.406 131.149 172.578 130.119C172.697 129.406 173.425 128.893 173.569 128.185C173.711 127.487 173.249 126.807 172.718 126.303C172.188 125.8 171.554 125.367 171.199 124.741C170.439 123.399 171.228 121.749 172.176 120.519C172.469 120.138 175.027 117.254 173.756 116.967C173.108 116.821 170.994 119.954 170.629 120.443C168.717 123.002 167.195 125.82 166.136 128.788Z" fill="#F57D90"/>
<path d="M222.997 152.254C220.594 148.636 216.221 146.258 211.702 146.112C209.123 146.028 206.577 146.622 204.005 146.824C201.433 147.026 198.649 146.767 196.643 145.234C195.33 144.229 194.381 142.708 192.779 142.201C190.681 141.537 188.548 142.882 186.506 143.684C183.495 144.865 179.988 144.87 176.974 143.697C174.654 142.794 172.658 141.246 170.314 140.401C167.971 139.556 164.922 139.636 163.404 141.522C165.994 144.01 170.605 145.299 174.217 146.032C177.828 146.765 181.538 146.921 185.204 147.35C188.397 147.723 191.56 148.304 194.694 148.989C203.722 150.961 213.982 154.277 222.997 152.254Z" fill="#CA4D57"/>
<path d="M209.391 165.066C194.21 163.837 179.475 158.079 167.812 148.818C177.39 160.046 194.244 166.861 209.391 165.066Z" fill="#CA4D57"/>
<path d="M215.391 159.047C207.368 159.845 199.261 159.895 191.227 159.197C198.489 162.574 208.088 162.345 215.391 159.047Z" fill="#CA4D57"/>
<path d="M164.813 192.374C170.331 189.27 175.672 184.431 182.045 185.185C188.63 185.964 192.899 192.465 199.265 194.236C207.975 196.659 218.189 189.67 225.955 194.114C228.042 195.307 229.678 197.24 231.999 197.95C234.32 198.659 237.612 196.976 236.889 194.776C236.459 193.472 234.85 192.841 233.405 192.813C231.96 192.786 230.533 193.183 229.088 193.155C224.094 193.056 220.497 188.088 215.538 187.526C210.606 186.966 206.305 190.901 201.363 191.381C190.917 192.396 183.782 178.265 173.389 179.679C168.117 180.395 164.541 184.898 160.428 188.094C157.464 190.397 153.979 192.087 150.293 193.082C147.923 193.722 141.315 193.184 140.661 195.656C146.743 199.435 159.179 195.544 164.813 192.374Z" fill="#CA4D57"/>
<path d="M214.58 174.457C205.702 178.301 195.825 180.067 186.074 179.554C191.045 180.31 196.561 181.433 201.581 181.051C206.599 180.669 211.076 177.873 214.58 174.457Z" fill="#CA4D57"/>
<path d="M193.825 175.45C184.708 175.666 175.544 173.803 167.329 170.063C170.334 173.472 174.631 175.549 179.297 176.061C183.962 176.572 189.172 176.061 193.825 175.45Z" fill="#CA4D57"/>
<path d="M151.948 218.109C149.968 223.273 148.45 228.626 145.758 233.494C143.066 238.362 138.971 242.822 133.491 244.655C129.635 245.945 125.27 245.818 121.508 244.305C119.338 243.432 117.269 241.994 116.441 239.909C115.613 237.823 116.479 235.063 118.688 234.284C120.571 233.618 122.622 234.503 124.47 235.248C128.185 236.747 132.478 237.729 136.214 236.278C138.944 235.218 140.996 232.978 142.399 230.525C143.802 228.073 144.645 225.377 145.644 222.754C148.143 216.192 152.473 208.122 159.624 205.124C156.137 209.013 153.783 213.325 151.948 218.109Z" fill="#CA4D57"/>
<path d="M197.36 228.226C194.521 229.414 193.466 232.662 191.337 234.797C188.382 237.761 183.461 238.314 179.308 237.222C175.155 236.13 170.81 233.386 167.337 230.975C167.981 229.597 168.584 228.2 169.144 226.788C172.088 219.359 173.842 211.51 174.33 203.59C174.396 202.518 173.879 200.246 175.267 199.863C176.285 199.582 177.438 200.511 177.771 201.323C178.46 202.999 178.189 205.612 178.292 207.403C178.408 209.438 178.474 211.474 178.49 213.511C178.512 216.353 178.437 219.197 178.263 222.035C178.176 223.454 178.064 224.871 177.929 226.287C177.911 226.468 177.277 229.353 177.293 229.368C178.623 230.576 179.937 231.845 181.553 232.684C183.17 233.523 185.112 233.948 186.881 233.454C188.612 232.971 189.942 231.701 191.321 230.601C192.7 229.5 195.568 228.025 197.36 228.226Z" fill="#CA4D57"/>
<path d="M147.058 201.058C144.443 202.167 141.93 203.885 139.917 205.813C137.984 207.665 136.209 209.834 133.595 210.863C131.667 211.623 129.519 211.648 127.449 211.921C125.379 212.194 123.194 212.821 121.933 214.396C120.494 216.194 120.627 218.759 119.335 220.654C116.8 224.372 111.063 223.69 107.489 225.967C102.122 229.386 96.8358 233.039 91.4644 236.495C89.4088 237.819 87.7629 238.754 85.567 239.857C83.3702 240.96 80.9676 241.854 78.4802 241.808C75.9933 241.763 73.41 240.609 72.3085 238.503C75.6911 236.304 79.3899 233.178 82.7721 230.979C83.6553 230.405 84.582 229.815 85.6446 229.681C88.0064 229.383 90.3426 231.408 92.5982 230.682C90.8936 229.47 91.0299 226.861 92.3104 225.249C93.5903 223.638 95.6442 222.779 97.6056 221.987C100.001 221.019 102.427 220.043 105.002 219.665C107.849 219.248 111.044 219.491 113.277 217.772C115.829 215.807 116.177 211.91 118.991 210.296C121.283 208.981 124.219 209.735 126.887 209.472C130.479 209.117 133.511 206.915 136.47 204.959C139.428 203.003 143.481 200.586 147.058 201.058Z" fill="#CA4D57"/>
<path d="M35.3898 223.247C37.1221 226.593 41.4073 228.087 45.3499 228.169C49.2926 228.253 53.1738 227.254 57.1128 227.073C61.0514 226.893 65.398 227.743 67.8383 230.669C79.2793 218.288 93.7115 208.117 109.938 202.186C94.4221 204.869 79.4267 212.269 68.804 223.282C63.6392 221.443 57.909 222.884 52.5102 223.969C47.1119 225.054 40.1179 225.937 35.3898 223.247Z" fill="#CA4D57"/>
<path d="M219.084 211.901C220.609 212.933 222.378 213.847 223.188 215.445C224.011 217.069 223.63 218.989 223.135 220.727C222.397 223.319 221.384 225.948 219.383 227.852C217.382 229.757 214.165 230.746 211.61 229.572C210.378 229.005 209.331 227.706 209.761 226.477C210.088 225.544 211.103 225.026 211.961 224.471C214.198 223.025 215.814 220.748 216.381 218.245C215.784 219.901 214.097 221.276 212.247 221.187C210.397 221.097 208.775 219.188 209.423 217.55C209.829 216.524 210.892 215.894 211.838 215.262C212.785 214.63 213.755 213.786 213.795 212.692C213.834 211.598 212.939 210.706 212.186 209.872C210.711 208.238 209.59 206.324 208.887 204.283C208.675 203.669 207.974 202.239 208.47 201.644C209.031 200.97 209.767 201.387 210.236 201.817C211.77 203.223 212.749 205.658 214.103 207.284C215.545 209.016 217.182 210.614 219.084 211.901Z" fill="#CA4D57"/>
<path d="M191.214 115.475C192.432 116.929 193.504 118.513 194.956 119.763C197.66 122.092 201.627 123.036 205.178 122.197C207.977 121.535 210.419 119.871 213.21 119.181C216.897 118.269 221.044 119.238 223.855 121.669C220.765 120.086 216.931 119.86 213.656 121.07C210.353 122.29 207.735 124.826 204.417 126.008C200.689 127.334 196.025 126.587 193.498 123.678C191.983 121.934 191.364 119.672 190.516 117.563C190.198 116.772 189.833 115.992 189.375 115.264C189.086 114.806 187.75 113.695 187.702 113.276C187.528 111.726 190.882 115.078 191.214 115.475Z" fill="#CA4D57"/>
<path d="M238.181 140.387C238.632 138.539 238.356 136.578 237.663 134.798C236.971 133.018 235.879 131.4 234.681 129.878C234.048 129.072 231.412 125.798 230.11 126.919C228.724 128.112 231.783 129.761 232.45 130.364C233.925 131.7 235.179 133.254 236.153 134.951C236.851 136.163 238.53 138.96 238.181 140.387Z" fill="#CA4D57"/>
<path d="M15.7449 75.2817C10.7091 70.5258 10.7091 62.8145 15.7449 58.0582C20.7812 53.3019 28.9458 53.3019 33.9819 58.0582C39.0176 62.8145 39.0176 70.5258 33.9819 75.2817C28.9458 80.038 20.7812 80.038 15.7449 75.2817ZM37.1808 55.0375C30.3778 48.6129 19.3488 48.6129 12.5464 55.0375C5.74381 61.4617 5.74381 71.8782 12.5464 78.3028C19.3488 84.7274 30.3778 84.7274 37.1808 78.3028C43.9833 71.8782 43.9833 61.4617 37.1808 55.0375Z" fill="#FAB11B"/>
<path d="M16.8682 74.2211C12.4525 70.0508 12.4525 63.2896 16.8682 59.1193C21.2838 54.9491 28.4427 54.9491 32.8588 59.1193C37.2744 63.2896 37.2744 70.0508 32.8588 74.2211C28.4427 78.3913 21.2838 78.3913 16.8682 74.2211ZM33.9819 58.0582C28.9458 53.3019 20.7812 53.3019 15.7449 58.0582C10.7091 62.8145 10.7091 70.5259 15.7449 75.2817C20.7812 80.038 28.9458 80.038 33.9819 75.2817C39.0176 70.5259 39.0176 62.8145 33.9819 58.0582Z" fill="#F47415"/>
<path d="M28.19 68.2291C27.3736 67.4581 27.3736 66.2077 28.19 65.4366C29.0064 64.6656 30.3299 64.6656 31.1463 65.4366C31.9632 66.2077 31.9632 67.4581 31.1463 68.2291C30.3299 69.0002 29.0064 69.0002 28.19 68.2291ZM23.5578 72.6039C22.7414 71.8328 22.7414 70.5825 23.5578 69.8114C24.3742 69.0404 25.6977 69.0404 26.5146 69.8114C27.331 70.5825 27.331 71.8328 26.5146 72.6039C25.6977 73.3749 24.3742 73.3749 23.5578 72.6039ZM23.2126 63.5287C22.3962 62.7572 22.3962 61.5073 23.2126 60.7362C24.029 59.9652 25.353 59.9652 26.1694 60.7362C26.9858 61.5073 26.9858 62.7572 26.1694 63.5287C25.353 64.2998 24.029 64.2998 23.2126 63.5287ZM18.5804 67.9031C17.764 67.132 17.764 65.8821 18.5804 65.111C19.3973 64.34 20.7208 64.3396 21.5372 65.111C22.3536 65.8821 22.3536 67.132 21.5372 67.9031C20.7208 68.6745 19.3973 68.6745 18.5804 67.9031ZM32.8589 59.1192C28.4429 54.9489 21.2839 54.9489 16.8683 59.1192C12.4526 63.2895 12.4526 70.0507 16.8683 74.2209C21.2839 78.3912 28.4429 78.3912 32.8589 74.2209C37.2746 70.0507 37.2746 63.2895 32.8589 59.1192Z" fill="#FAB11B"/>
<path d="M6.46013 116.273C2.54072 112.571 2.54072 106.57 6.46013 102.869C10.3794 99.1672 16.7337 99.1672 20.653 102.869C24.5723 106.57 24.5723 112.572 20.653 116.273C16.7337 119.975 10.3794 119.975 6.46013 116.273ZM23.1426 100.518C17.8483 95.5177 9.2648 95.5177 3.97063 100.518C-1.32354 105.518 -1.32354 113.624 3.97063 118.624C9.2648 123.624 17.8483 123.624 23.1426 118.624C28.4365 113.624 28.4365 105.518 23.1426 100.518Z" fill="#DD6D37"/>
<path d="M7.33413 115.448C3.89753 112.202 3.89753 106.94 7.33413 103.694C10.7705 100.449 16.3422 100.449 19.7787 103.694C23.2152 106.94 23.2152 112.202 19.7787 115.448C16.3422 118.693 10.7705 118.693 7.33413 115.448ZM20.653 102.869C16.7336 99.1672 10.3793 99.1672 6.46006 102.869C2.54066 106.57 2.54066 112.571 6.46006 116.273C10.3793 119.975 16.7336 119.975 20.653 116.273C24.5723 112.572 24.5723 106.57 20.653 102.869Z" fill="#B54338"/>
<path d="M16.1451 110.785C15.51 110.184 15.51 109.211 16.1451 108.611C16.7809 108.011 17.8111 108.011 18.4464 108.611C19.0822 109.211 19.0822 110.184 18.4464 110.785C17.8111 111.385 16.7809 111.385 16.1451 110.785ZM12.5405 114.189C11.905 113.589 11.905 112.616 12.5405 112.016C13.1757 111.416 14.2058 111.416 14.8414 112.016C15.4769 112.616 15.4769 113.589 14.8414 114.189C14.2058 114.789 13.1757 114.789 12.5405 114.189ZM12.2719 107.126C11.6363 106.526 11.6365 105.553 12.2719 104.953C12.9072 104.353 13.9375 104.353 14.5731 104.953C15.2083 105.553 15.2083 106.526 14.5731 107.126C13.9375 107.726 12.9072 107.726 12.2719 107.126ZM8.66682 110.531C8.03144 109.931 8.03144 108.958 8.66682 108.358C9.30219 107.758 10.3325 107.758 10.968 108.358C11.6032 108.958 11.6034 109.931 10.968 110.531C10.3325 111.131 9.30219 111.131 8.66682 110.531ZM19.7789 103.695C16.3424 100.449 10.7707 100.449 7.33429 103.695C3.89769 106.94 3.89769 112.202 7.33429 115.448C10.7707 118.693 16.3424 118.693 19.7789 115.448C23.2153 112.202 23.2153 106.94 19.7789 103.695Z" fill="#DD6D37"/>
</svg>
