<svg width="188" height="118" viewBox="0 0 188 118" fill="none" xmlns="http://www.w3.org/2000/svg">
<path d="M18.2249 90.6589L22.1027 91.9705C22.3644 92.059 22.2559 92.4512 21.9858 92.3925L17.9856 91.5233L2.91876 87.3529L3.15793 86.4885L18.2249 90.6589Z" fill="#7873B4"/>
<path d="M2.22162 85.064C3.15479 85.3222 3.70195 86.2882 3.44374 87.2214C3.18539 88.1548 2.21939 88.702 1.2861 88.4436C0.352803 88.1853 -0.194353 87.2193 0.0639907 86.286C0.322334 85.3527 1.28833 84.8055 2.22162 85.064Z" fill="#FAB11B"/>
<path d="M1.00416 87.9457C0.637065 87.8442 0.330126 87.6327 0.108032 87.3572C0.296372 87.8695 0.719937 88.2869 1.28614 88.4435C2.21943 88.7018 3.18544 88.1548 3.44378 87.2214C3.60047 86.6553 3.46032 86.0773 3.11779 85.6524C3.23981 85.9846 3.26332 86.3565 3.16179 86.7236C2.90345 87.6569 1.93745 88.2041 1.00416 87.9457Z" fill="#F47415"/>
<path d="M1.54762 86.6877C1.13811 86.9517 0.67133 86.9567 0.505318 86.699C0.339174 86.4414 0.536703 86.0184 0.946349 85.7544C1.35586 85.4906 1.82252 85.4855 1.98866 85.7432C2.15467 86.0007 1.95727 86.4238 1.54762 86.6877Z" fill="#FBD551"/>
<path d="M29.0627 113.031C28.1672 112.482 27.9057 111.295 28.4673 110.328L38.2632 93.465L37.6641 93.0976L27.8246 110.094C27.1204 111.312 27.5143 112.867 28.7125 113.603C29.9106 114.337 31.4762 113.982 32.2411 112.804L42.9304 96.3271L42.3311 95.9597L31.7423 112.336C31.1352 113.275 29.9582 113.58 29.0627 113.031Z" fill="#7873B4"/>
<path d="M38.0123 91.445L36.3636 94.1332L37.5512 94.8616C38.4531 95.4148 39.6195 95.2589 40.3446 94.4882L40.6036 94.2128L40.4755 94.5686C40.1174 95.5641 40.5072 96.6745 41.4092 97.2277L42.5968 97.9561L44.2454 95.2676C45.3009 93.5464 44.7614 91.2954 43.0402 90.2397C41.319 89.1841 39.0679 89.7236 38.0123 91.445Z" fill="#ABA2D8"/>
<path d="M39.285 92.7602C39.9213 92.3562 40.4438 91.7974 40.9272 91.2191C41.1516 90.9508 41.3696 90.6767 41.5922 90.4066C40.4369 90.2267 39.2318 90.7379 38.5834 91.7953L37.6501 93.3171C38.2262 93.2852 38.7941 93.0719 39.285 92.7602Z" fill="#E6D9EF"/>
<path d="M183.541 4.54169C180.191 4.51989 176.802 3.98875 173.515 4.63152C170.226 5.27429 166.924 7.49668 166.367 10.8001C165.846 13.8883 167.83 16.8329 170.026 19.0661C172.221 21.2991 174.807 23.3232 176.027 26.2076C177.767 30.3222 176.287 35.0357 176.646 39.4888C176.974 43.5751 178.951 47.5054 182.033 50.2075C183.621 51.5993 185.494 52.656 187.497 53.3258V4.20218C186.199 4.45921 184.849 4.55022 183.541 4.54169Z" fill="#FDC3C9"/>
<path d="M145.989 108.889C157.273 102.616 166.041 91.9547 170.018 79.6722C173.995 67.3896 173.142 53.6122 167.677 41.9153C165.211 36.6386 161.504 31.5091 156.043 29.4844C149.237 26.9607 141.266 29.799 134.549 27.0445C126.87 23.8949 123.654 14.7828 117.309 9.43157C110.895 4.02238 101.093 3.05888 93.7485 7.11581C86.404 11.1727 82.0002 19.9839 83.1639 28.293C83.6853 32.0133 85.197 35.5213 85.9903 39.1933C86.7836 42.8652 86.7495 47.0102 84.4878 50.0098C80.9285 54.7307 73.894 54.5075 68.4697 56.8595C62.1733 59.5898 58.0347 66.1343 57.0612 72.9277C56.0877 79.721 57.9374 86.6787 61.0408 92.7996C64.1443 98.9207 68.4539 104.334 72.7317 109.7L145.989 108.889Z" fill="#FDC3C9"/>
<path d="M159.765 73.3029H126.331V77.1092H159.765V73.3029Z" fill="#81383F"/>
<path d="M66.6263 73.3029V77.1092H126.331V73.3029H66.6263Z" fill="#B1483C"/>
<path d="M156.776 77.1092H125.002V117.335H156.776V77.1092Z" fill="#81383F"/>
<path d="M69.6164 77.1092V117.335H125.002V77.1092H69.6164Z" fill="#B1483C"/>
<path d="M156.776 77.1092H125.002V80.4396H156.776V77.1092Z" fill="#552A37"/>
<path d="M69.6164 77.1092V80.4396H125.002V77.1092H69.6164Z" fill="#81383F"/>
<path d="M116.75 44.0423C115.657 44.4501 114.831 45.3654 114.538 46.4946L109.317 66.589C108.654 69.1401 109.937 71.7955 112.349 72.8612L113.28 73.2729H123.036L116.315 68.3071L118.635 59.5647L116.75 44.0423Z" fill="#F8A084"/>
<path d="M112.858 52.9578L118.088 55.0678L118.473 58.2378L112.673 53.6731L112.858 52.9578Z" fill="#E16F6F"/>
<path d="M116.315 68.3072L112.123 67.2963C114.65 65.6012 116.478 67.6926 116.478 67.6926L116.315 68.3072Z" fill="#F57E74"/>
<path d="M116.75 44.0423L116.059 44.3C115.374 44.5558 114.782 45.0158 114.366 45.618L110.071 51.8332L118.088 55.0678L116.75 44.0423Z" fill="#4F4A86"/>
<path d="M116.75 54.5277V48.2648L115.171 53.8907L116.75 54.5277Z" fill="#37345D"/>
<path d="M140.877 40.7714L135.853 40.2516C135.77 41.5823 135.392 42.8935 134.718 44.0432C133.605 45.9421 131.69 47.3678 129.536 47.8262C127.526 48.2539 125.349 47.8274 123.649 46.673C122.223 45.7051 121.151 44.2355 120.639 42.5918L116.75 44.0423V60.8121C116.75 63.0456 117.854 65.1348 119.7 66.3929C121.169 67.3946 122.185 68.9356 122.525 70.6813L123.036 73.3029H149.442L140.877 40.7714Z" fill="#7772B6"/>
<path d="M141.67 49.831L142.731 55.4353C143.332 58.6068 144.401 61.6715 145.902 64.5289L148.368 69.224L143.262 49.831H141.67Z" fill="#54538F"/>
<path d="M121.053 47.3946C123.291 49.2104 126.244 50.1173 129.116 49.8698C131.987 49.6224 134.742 48.2236 136.636 46.0519C135.248 48.6461 132.337 50.6167 129.41 50.9113C126.482 51.2059 122.929 49.6601 121.053 47.3946Z" fill="#54538F"/>
<path d="M125.412 52.3844C127.377 52.9762 129.527 52.9423 131.473 52.2885C133.418 51.6347 135.153 50.3641 136.363 48.7053C135.563 50.6329 134.011 52.4087 132.029 53.0638C130.048 53.7191 127.202 53.4553 125.412 52.3844Z" fill="#54538F"/>
<path d="M143.219 64.6914C142.316 63.6623 140.798 63.3839 139.443 63.5732C138.087 63.7624 136.823 64.3423 135.525 64.777C134.227 65.2119 132.809 65.5025 131.501 65.1014C130.618 64.8309 129.774 64.2494 128.859 64.3822C127.995 64.5079 127.366 65.2332 126.652 65.7387C125.32 66.6831 123.49 66.8776 121.989 66.2347C123.999 67.2355 126.311 67.2313 128.531 66.9016C133.274 66.1972 138.477 65.3956 143.219 64.6914Z" fill="#54538F"/>
<path d="M140.514 67.7394C134.975 69.2322 129.143 69.6326 123.451 68.911C128.637 71.0045 135.562 70.3379 140.514 67.7394Z" fill="#543894"/>
<path d="M123.649 46.673C125.349 47.8274 127.526 48.2539 129.536 47.8262C131.69 47.3678 133.605 45.9421 134.718 44.0432C135.392 42.8935 135.771 41.5823 135.853 40.2516L130.529 39.7009L128.704 30.6598L123.744 36.665L124.403 41.1878L120.639 42.5918C121.151 44.2355 122.223 45.705 123.649 46.673Z" fill="#F8A084"/>
<path d="M124.167 39.5592C127.596 38.9278 128.92 33.8441 128.396 31.0334L123.744 36.665L124.167 39.5592Z" fill="#E16F6F"/>
<path d="M126.438 45.4995C126.409 45.4995 126.378 45.4848 126.363 45.4578L126.331 45.4081C125.931 44.7765 125.246 44.3993 124.499 44.3993H121.935C121.887 44.3993 121.846 44.3593 121.846 44.3101C121.846 44.2608 121.887 44.2208 121.935 44.2208H124.499C125.308 44.2208 126.049 44.629 126.482 45.3128L126.514 45.3626C126.54 45.4043 126.527 45.4594 126.485 45.4857C126.47 45.495 126.453 45.4995 126.438 45.4995Z" fill="#F57E74"/>
<path d="M128.915 45.2021C128.911 45.2021 128.905 45.2018 128.901 45.2012C128.853 45.1937 128.819 45.1484 128.827 45.0997C128.946 44.2989 129.485 43.6049 130.229 43.2885L133.061 42.087C133.106 42.0677 133.158 42.0887 133.178 42.1342C133.198 42.1793 133.177 42.2319 133.131 42.2509L130.299 43.4525C129.611 43.745 129.114 44.3864 129.003 45.1261C128.996 45.1702 128.958 45.2021 128.915 45.2021Z" fill="#F57E74"/>
<path d="M121.152 73.3029C129.34 66.0076 121.451 48.0865 124.403 41.1878L124.226 39.9644C119.626 44.994 128.824 63.2322 119.467 73.3029H121.152Z" fill="#FBC020"/>
<path d="M138.816 73.3029C132.948 66.5627 138.736 46.7384 130.529 39.7009L130.312 38.6258C140.877 44.0423 132.379 64.1668 140.56 73.3029H138.816Z" fill="#FBC020"/>
<path d="M134.524 21.298C136.578 21.8322 138.238 23.5387 138.904 25.5542C139.571 27.5699 139.294 29.8377 138.343 31.7355C137.35 33.7157 135.571 35.3572 133.42 35.884C131.268 36.4108 128.783 35.6786 127.486 33.8835C126.432 32.4252 126.251 30.4781 126.598 28.7125C126.841 27.4703 127.329 26.3136 127.851 25.1674C128.155 24.4999 128.388 23.7342 128.838 23.1453C130.102 21.4895 132.551 20.7854 134.524 21.298Z" fill="#80473F"/>
<path d="M132.957 29.1836C133.329 27.8325 132.897 26.1649 131.879 25.2022C132.118 23.9353 131.847 22.5938 131.188 21.4879C130.261 21.8205 129.422 22.3796 128.838 23.1453C128.388 23.7342 128.155 24.4999 127.851 25.1674C127.329 26.3136 126.841 27.4703 126.598 28.7125C126.251 30.4781 126.432 32.4252 127.486 33.8834C128.178 34.8401 129.207 35.4917 130.344 35.8149C130.25 34.5208 130.161 33.1906 130.061 31.9451C131.428 31.6383 132.586 30.5346 132.957 29.1836Z" fill="#532E3B"/>
<path d="M136.502 25.4979C136.407 27.857 135.378 30.1659 133.685 31.8119C134.847 31.2726 135.799 30.5443 136.327 29.3764C136.855 28.2086 136.866 26.7269 136.502 25.4979Z" fill="#9F5B46"/>
<path d="M137.402 30.7309C136.319 32.5239 134.079 33.5381 132.017 33.1695C132.993 33.7337 134.171 33.8921 135.214 33.4671C136.256 33.0421 137.1 31.8158 137.402 30.7309Z" fill="#9F5B46"/>
<path d="M112.802 29.9704C115.22 33.9438 116.248 38.7443 115.672 43.3597C116.838 40.1939 117.088 36.7113 116.276 33.4367C116.067 32.5957 115.786 31.7529 115.258 31.0652C114.731 30.3775 113.667 29.9618 112.802 29.9704Z" fill="#80473F"/>
<path d="M114.329 31.2208C112.198 30.6152 110.379 28.9966 109.53 26.9503C108.682 24.9039 108.821 22.4731 109.898 20.5372C110.975 18.6012 112.966 17.2009 115.153 16.8427C116.272 15.3556 117.887 14.1506 119.679 13.6474C121.472 13.1444 123.427 13.2467 125.157 13.934C127.026 14.6766 128.606 16.0868 129.636 17.8135C130.665 19.5403 131.155 21.5702 131.12 23.5804C131.074 26.1816 130.056 28.8811 127.948 30.4063C125.917 31.8755 123.246 32.0515 120.739 32.0141C118.753 31.9844 116.24 31.7638 114.329 31.2208Z" fill="#80473F"/>
<path d="M128.471 29.0141C128.833 31.0277 128.674 33.1296 127.752 34.9383C126.524 37.3497 123.752 39.0474 121.095 38.5338C118.959 38.1212 117.29 36.4531 116.032 34.6794C114.773 32.9058 113.52 30.5421 112.807 28.9364C114.637 27.2837 115.883 24.9426 116.246 22.503C118.649 25.6214 123.02 27.3411 126.896 26.6471C127.476 29.6501 128.471 29.0141 128.471 29.0141Z" fill="#F8A084"/>
<path d="M128.253 27.4996C128.359 26.8514 128.656 26.208 129.186 25.8204C129.716 25.4329 130.504 25.3644 131.02 25.7699C131.375 26.0471 131.556 26.4925 131.642 26.9333C131.851 27.9879 131.585 29.1276 130.929 29.9798C130.668 30.32 130.338 30.6214 129.936 30.7734C129.535 30.9253 129.055 30.9085 128.704 30.6598C128.267 30.3481 128.313 29.8688 128.272 29.3948C128.217 28.7622 128.15 28.1321 128.253 27.4996Z" fill="#F8A084"/>
<path d="M130.944 27.4496C130.864 27.1891 130.759 26.9266 130.566 26.7342C130.371 26.5417 130.072 26.4347 129.818 26.5347C129.491 26.6635 129.369 27.0561 129.307 27.4019C129.207 27.9574 129.159 28.5219 129.16 29.0863C129.162 29.2442 129.167 29.4061 129.226 29.5522C129.286 29.6983 129.412 29.8272 129.569 29.8475C129.711 29.8659 129.851 29.7923 129.948 29.6873C130.045 29.5822 130.105 29.4492 130.16 29.3172C130.288 29.0058 130.4 28.6663 130.329 28.3368C130.258 28.0074 129.939 27.71 129.609 27.7809C129.607 27.6066 129.663 27.349 129.72 27.1841C129.776 27.0193 129.904 26.8676 130.073 26.831C130.228 26.7976 130.391 26.8651 130.51 26.9702C130.629 27.075 130.864 27.3132 130.944 27.4496Z" fill="#F57E74"/>
<path d="M126.896 26.6471C127.952 31.5135 128.349 38.5312 128.032 41.4651C129.538 35.8352 128.712 31.669 128.471 29.0141C128.23 26.3592 128.651 25.4962 128.651 25.4962L126.896 26.6471Z" fill="#80473F"/>
<path d="M123.829 27.5896C122.388 27.6433 120.948 27.6971 119.507 27.7508C119.907 27.0939 120.794 26.664 121.562 26.7008C122.331 26.7378 123.254 27.0789 123.829 27.5896Z" fill="#80473F"/>
<path d="M122.401 29.8395C122.401 30.2398 122.122 30.5643 121.778 30.5643C121.432 30.5643 121.152 30.2398 121.152 29.8395C121.152 29.4392 121.432 29.1147 121.778 29.1147C122.122 29.1147 122.401 29.4392 122.401 29.8395Z" fill="#2A2A44"/>
<path d="M113.357 29.567C114.37 29.1932 115.381 28.8194 116.394 28.4456C115.861 27.9589 115.082 27.8243 114.568 28.0839C114.054 28.3434 113.553 28.9284 113.357 29.567Z" fill="#80473F"/>
<path d="M115.224 31.2169C115.38 31.5849 115.701 31.8012 115.938 31.6999C116.175 31.5986 116.24 31.2181 116.083 30.8499C115.925 30.4818 115.606 30.2655 115.368 30.3669C115.131 30.4681 115.066 30.8487 115.224 31.2169Z" fill="#2A2A44"/>
<path d="M120.184 32.9671C119.343 33.1489 118.501 33.3306 117.659 33.5125C117.983 33.8392 118.548 34.0336 119 33.9516C119.453 33.8696 119.997 33.3866 120.184 32.9671Z" fill="#F57E74"/>
<path d="M123.744 33.2401C122.239 34.2061 120.634 35.0196 118.964 35.6638C119.453 36.1672 120.249 36.416 120.938 36.2908C121.629 36.1658 122.246 35.7569 122.714 35.2338C123.18 34.7108 123.481 33.8903 123.744 33.2401Z" fill="white"/>
<path d="M126.556 21.4084C125.167 22.1944 123.527 22.5262 121.942 22.3414C120.357 22.1566 118.837 21.4562 117.667 20.3717C118.389 21.3305 119.282 22.331 120.326 22.9225C121.372 23.5139 122.602 23.819 123.79 23.6439C124.978 23.4688 125.969 22.4555 126.556 21.4084Z" fill="#9F5B46"/>
<path d="M126.993 18.6747C124.904 19.8089 122.26 19.8549 120.133 18.7941C120.965 19.7602 122.317 20.3562 123.591 20.3727C124.867 20.3894 126.135 19.6187 126.993 18.6747Z" fill="#9F5B46"/>
<path d="M114.105 20.3429C113.934 22.3724 112.928 24.319 111.37 25.6308C112.11 25.7458 113.09 25.4114 113.57 24.8375C114.052 24.2637 114.279 23.5108 114.34 22.7643C114.402 22.0178 114.197 21.0863 114.105 20.3429Z" fill="#9F5B46"/>
<path d="M124.905 31.027C125.124 31.4902 124.626 32.1845 123.795 32.5777C122.964 32.9711 122.111 32.9142 121.893 32.451C121.674 31.9877 122.17 31.2933 123.002 30.9001C123.834 30.5069 124.686 30.5636 124.905 31.027Z" fill="#F46A9A"/>
<path d="M115.153 33.9446C115.221 34.3237 115.64 34.5651 116.088 34.4838C116.537 34.4024 116.844 34.0291 116.776 33.65C116.707 33.2708 116.288 33.0294 115.84 33.1107C115.392 33.1921 115.083 33.5654 115.153 33.9446Z" fill="#F46A9A"/>
<path d="M140.877 40.7714C144.177 41.1128 147.047 43.1856 148.408 46.2118L156.191 63.5224C156.99 65.3003 156.968 67.3396 156.133 69.1009C154.937 71.6244 152.29 73.1309 149.508 72.8725L135.584 71.5782L133.503 73.3029L128.693 71.7698C128.193 71.6105 127.789 71.2396 127.588 70.7555L126.989 69.3191C126.812 68.8941 126.965 68.4032 127.352 68.1536L130.187 66.325C130.64 66.033 131.218 66.021 131.683 66.2934L135.049 68.2675L148.755 65.6904L141.67 49.8311L140.877 40.7714Z" fill="#F8A084"/>
<path d="M140.877 40.7714L142.295 40.9181C144.797 41.177 147.088 42.4374 148.646 44.4124L152.058 48.7407L143.638 54.2343L140.971 48.2648L140.877 40.7714Z" fill="#7772B6"/>
<path d="M150.115 50.0089L143.638 54.2343L144.774 56.7773L150.327 50.4813L150.115 50.0089Z" fill="#E16F6F"/>
<path d="M152.901 64.9108L148.755 65.6903L148.581 65.3005C149.557 64.0548 151.342 63.798 152.63 64.7176L152.901 64.9108Z" fill="#F57E74"/>
<path d="M127.588 70.7555L130.252 67.6926L129.356 68.0411C128.245 68.4725 127.533 69.565 127.588 70.7555Z" fill="#F57E74"/>
<path d="M97.0137 54.272V57.4593C97.0137 58.2541 96.3701 58.8983 95.5755 58.8983H100.149C100.943 58.8983 101.588 58.2541 101.588 57.4593V53.244H98.0421C97.4747 53.244 97.0137 53.7042 97.0137 54.272Z" fill="#36335C"/>
<path d="M98.813 41.6426C94.2713 41.6426 90.5898 45.3242 90.5898 49.8655V57.4593C90.5898 58.2541 91.2347 58.8983 92.0293 58.8983H93.7249H95.5754C96.37 58.8983 97.0136 58.2541 97.0136 57.4593V54.272C97.0136 53.7042 97.4746 53.244 98.042 53.244H101.588H113.64V43.9406L115.121 41.6426H98.813Z" fill="#46437D"/>
<path d="M94.3698 60.626H99.4986C99.802 60.626 100.049 60.3792 100.049 60.0748V58.8983H94.3698V60.626Z" fill="#7975B5"/>
<path d="M92.845 60.626H95.5046C95.8093 60.626 96.0562 60.3792 96.0562 60.0748V58.8983H92.2934V60.0748C92.2934 60.3792 92.5403 60.626 92.845 60.626Z" fill="#ADA4D9"/>
<path d="M96.219 46.382C96.219 45.7442 96.5854 45.1929 97.1174 44.9232V44.7463H97.8542C98.7578 44.7463 99.4907 45.4786 99.4907 46.382C99.4907 47.2853 98.7578 48.0177 97.8542 48.0177H97.1174V47.8407C96.5854 47.571 96.219 47.0199 96.219 46.382Z" fill="#7975B5"/>
<path d="M95.4822 46.382C95.4822 47.2853 96.2138 48.0177 97.1174 48.0177C98.021 48.0177 98.7525 47.2853 98.7525 46.382C98.7525 45.4786 98.021 44.7463 97.1174 44.7463C96.2138 44.7463 95.4822 45.4786 95.4822 46.382Z" fill="#ADA4D9"/>
<path d="M101.588 46.382C101.588 45.7442 101.955 45.1929 102.488 44.9232V44.7463H103.225C104.128 44.7463 104.86 45.4786 104.86 46.382C104.86 47.2853 104.128 48.0177 103.225 48.0177H102.488V47.8407C101.955 47.571 101.588 47.0199 101.588 46.382Z" fill="#7975B5"/>
<path d="M100.851 46.382C100.851 47.2853 101.584 48.0177 102.488 48.0177C103.39 48.0177 104.123 47.2853 104.123 46.382C104.123 45.4786 103.39 44.7463 102.488 44.7463C101.584 44.7463 100.851 45.4786 100.851 46.382Z" fill="#ADA4D9"/>
<path d="M97.2159 63.5041H94.8965C94.6692 63.5041 94.4854 63.32 94.4854 63.0929V60.6261H97.627V63.0929C97.627 63.32 97.4431 63.5041 97.2159 63.5041Z" fill="#4C487A"/>
<path d="M95.3522 60.6261V63.5041H96.0562V60.6261H95.3522Z" fill="#7975B5"/>
<path d="M96.5514 65.32L95.5755 66.1935V63.5041H96.5514V65.32Z" fill="#7975B5"/>
<path d="M119.164 43.9179V41.6426H115.121C112.51 41.6426 110.393 43.7595 110.393 46.3707V66.859H114.436H119.164H119.85V46.3707C119.85 45.4727 119.599 44.6331 119.164 43.9179Z" fill="#46437D"/>
<path d="M123.892 66.859H114.436V46.3707C114.436 43.7595 116.553 41.6426 119.164 41.6426C121.776 41.6426 123.892 43.7595 123.892 46.3707V66.859Z" fill="#36335C"/>
<path d="M115.121 66.859H88.5344C87.3996 66.859 86.4789 67.7793 86.4789 68.9148V73.3029H115.121V66.859Z" fill="#46437D"/>
<path d="M130.265 66.859H113.511C112.376 66.859 111.456 67.7793 111.456 68.9148V73.3029H132.321V68.9148C132.321 67.7793 131.401 66.859 130.265 66.859Z" fill="#36335C"/>
<path d="M123.892 48.0176C123.892 46.5948 123.077 45.3654 121.888 44.7636V44.3688H120.244C118.229 44.3688 116.595 46.0025 116.595 48.0176C116.595 50.0329 118.229 51.6666 120.244 51.6666H121.888V51.2718C123.077 50.6702 123.892 49.4406 123.892 48.0176Z" fill="#7975B5"/>
<path d="M125.537 48.0176C125.537 50.0329 123.904 51.6666 121.888 51.6666C119.873 51.6666 118.239 50.0329 118.239 48.0176C118.239 46.0025 119.873 44.3688 121.888 44.3688C123.904 44.3688 125.537 46.0025 125.537 48.0176Z" fill="#ADA4D9"/>
<path d="M116.081 41.6426H113.1C112.646 41.6426 112.278 41.2744 112.278 40.8204V35.7863C112.278 35.3321 112.646 34.9638 113.1 34.9638H116.081C116.535 34.9638 116.904 35.3321 116.904 35.7863V40.8204C116.904 41.2744 116.535 41.6426 116.081 41.6426Z" fill="#F9B11A"/>
<path d="M115.379 33.9703H113.803V34.9639H115.379V33.9703Z" fill="#ADA4D9"/>
<path d="M116.904 37.3281C116.884 37.3281 116.866 37.3253 116.846 37.3199L112.221 35.9837C112.111 35.9522 112.049 35.8383 112.081 35.7293C112.112 35.6202 112.225 35.5575 112.334 35.5886L116.96 36.9249C117.069 36.9564 117.132 37.0704 117.101 37.1794C117.074 37.2695 116.993 37.3281 116.904 37.3281Z" fill="#F68C12"/>
<path d="M116.904 40.0006C116.884 40.0006 116.866 39.9978 116.846 39.9925L112.221 38.6562C112.111 38.6247 112.049 38.5107 112.081 38.4017C112.112 38.2925 112.225 38.2298 112.334 38.2611L116.96 39.5974C117.069 39.6288 117.132 39.7429 117.101 39.8519C117.074 39.9419 116.993 40.0006 116.904 40.0006Z" fill="#F68C12"/>
<path d="M109.571 41.6426H106.591C106.136 41.6426 105.767 41.2744 105.767 40.8204V35.7863C105.767 35.3321 106.136 34.9638 106.591 34.9638H109.571C110.025 34.9638 110.393 35.3321 110.393 35.7863V40.8204C110.393 41.2744 110.025 41.6426 109.571 41.6426Z" fill="#F35C72"/>
<path d="M108.868 33.9703H107.292V34.9639H108.868V33.9703Z" fill="#ADA4D9"/>
<path d="M110.393 37.3281C110.375 37.3281 110.355 37.3253 110.337 37.3199L105.711 35.9837C105.602 35.9522 105.539 35.8383 105.57 35.7293C105.602 35.6202 105.716 35.5575 105.825 35.5886L110.451 36.9249C110.56 36.9564 110.623 37.0704 110.591 37.1794C110.565 37.2695 110.482 37.3281 110.393 37.3281Z" fill="#CA4D57"/>
<path d="M110.393 40.0006C110.375 40.0006 110.355 39.9978 110.337 39.9925L105.711 38.6562C105.602 38.6247 105.539 38.5107 105.57 38.4017C105.602 38.2925 105.716 38.2298 105.825 38.2611L110.451 39.5974C110.56 39.6288 110.623 39.7429 110.591 39.8519C110.565 39.9419 110.482 40.0006 110.393 40.0006Z" fill="#CA4D57"/>
<path d="M105.767 38.6644C105.678 38.6644 105.597 38.6058 105.57 38.5157C105.539 38.4067 105.602 38.2927 105.711 38.2611L110.337 36.9249C110.444 36.8938 110.56 36.9563 110.591 37.0654C110.623 37.1744 110.56 37.2884 110.451 37.32L105.825 38.6562C105.805 38.6616 105.787 38.6644 105.767 38.6644Z" fill="#CA4D57"/>
<path d="M105.767 41.3367C105.678 41.3367 105.597 41.2781 105.57 41.188C105.539 41.079 105.602 40.965 105.711 40.9336L110.337 39.5974C110.444 39.5659 110.56 39.6288 110.591 39.7379C110.623 39.8469 110.56 39.9609 110.451 39.9925L105.825 41.3287C105.805 41.3341 105.787 41.3367 105.767 41.3367Z" fill="#CA4D57"/>
<path d="M112.278 38.6644C112.189 38.6644 112.106 38.6058 112.081 38.5157C112.049 38.4067 112.111 38.2927 112.221 38.2611L116.846 36.9249C116.955 36.8938 117.069 36.9563 117.101 37.0654C117.132 37.1744 117.069 37.2884 116.96 37.32L112.334 38.6562C112.316 38.6616 112.296 38.6644 112.278 38.6644Z" fill="#F68C12"/>
<path d="M112.278 41.3367C112.189 41.3367 112.106 41.2781 112.081 41.188C112.049 41.079 112.111 40.965 112.221 40.9336L116.846 39.5974C116.955 39.5659 117.069 39.6288 117.101 39.7379C117.132 39.8469 117.069 39.9609 116.96 39.9925L112.334 41.3287C112.316 41.3341 112.296 41.3367 112.278 41.3367Z" fill="#F68C12"/>
<path d="M114.436 64.8489H110.393V66.859H114.436V64.8489Z" fill="#ADA4D9"/>
<path d="M123.892 64.8489H114.436V66.859H123.892V64.8489Z" fill="#7975B5"/>
<path d="M103.049 80.4396H69.6164V103.409C69.9368 103.808 70.2993 104.173 70.7012 104.492C72.2182 105.696 74.2474 106.231 76.161 105.93C77.2248 105.763 78.2493 105.353 79.3249 105.307C81.1558 105.228 82.8737 106.219 84.2462 107.433C85.62 108.646 86.764 110.106 88.1772 111.273C89.5891 112.44 91.3924 113.32 93.2062 113.058C95.0029 112.799 96.4739 111.47 97.5141 109.984C98.5543 108.495 99.278 106.807 100.305 105.31C102.736 101.765 106.907 99.4765 111.205 99.3315C107.34 93.6478 103.897 87.2603 103.049 80.4396Z" fill="#81383F"/>
<path d="M108.743 66.8585L106.382 66.8835C106.097 66.8865 105.851 67.0926 105.803 67.3741C105.024 71.8599 104.416 76.4883 105.58 80.9199C106.663 85.0483 108.581 88.9589 111.202 92.3285C112.27 93.7014 113.527 95.234 113.259 96.9525C112.92 99.1284 110.347 100.164 108.147 100.254C105.947 100.345 103.607 99.9391 101.641 100.932C98.0971 102.722 97.3629 108.25 93.5476 109.347C91.5748 109.913 89.4485 108.998 87.8763 107.68C86.3029 106.362 85.1038 104.657 83.6262 103.232C82.15 101.807 80.2311 100.624 78.1835 100.767C76.903 100.857 75.6592 101.462 74.3865 101.292C72.6725 101.064 71.4432 99.4976 70.7773 97.9005C70.1127 96.3033 69.808 94.5513 68.932 93.0591C68.0573 91.5668 66.3306 90.3472 64.6657 90.8176C67.9995 87.0076 70.6197 82.5794 72.3823 77.8349C73.9216 73.6929 73.4553 68.3439 78.0627 66.4444C79.5166 65.8448 81.1006 65.3422 82.1342 64.1569C83.6249 62.4481 86.7114 63.5279 88.8798 64.1904C91.0482 64.853 93.2021 65.7588 95.469 65.7518C96.9899 65.7472 98.4741 65.3295 99.9477 64.9504C101.42 64.5716 102.934 64.2261 104.449 64.3694C105.962 64.5125 107.969 65.5505 108.743 66.8585Z" fill="#F35C72"/>
<path d="M93.3375 103.202C93.4754 104.982 91.6786 106.249 90.2287 105.881C88.7787 105.512 87.6846 104.11 86.7153 102.758C85.7421 101.401 84.7479 99.8963 84.6284 98.1076C84.5115 96.3475 85.2693 94.6882 86.0665 93.2072C87.531 90.4878 89.2226 87.9159 90.3009 84.9458C91.3805 81.976 91.7771 78.4371 90.5767 75.5354C92.292 77.8769 92.9408 81.0788 92.3826 84.1296C91.9939 86.2468 91.0482 88.1457 90.0934 89.983C89.1385 91.8201 88.1483 93.6725 87.6505 95.7561C87.1527 97.8398 87.2157 100.234 88.2612 101.998C89.3067 103.762 91.8271 104.377 93.3375 103.202Z" fill="#CA4D57"/>
<path d="M97.0216 77.1092C99.1545 84.1541 98.6003 92.3107 95.5466 98.8433C98.3862 96.9723 99.7324 92.858 99.7074 88.9546C99.6812 85.051 98.1839 80.7521 97.0216 77.1092Z" fill="#CA4D57"/>
<path d="M100.715 76.0349C102.454 81.0913 103.486 86.5004 103.754 91.9651C105.28 86.596 103.793 80.3276 100.715 76.0349Z" fill="#CA4D57"/>
<path d="M78.156 71.4125C76.4315 78.4845 72.7159 84.7981 67.7592 89.0783C68.7495 89.0844 69.833 89.542 70.6013 90.3084C71.3697 91.0746 71.9121 92.1668 72.1052 93.3418C72.4099 91.6847 72.0789 89.7461 71.1372 88.4641C74.6164 83.956 77.0107 77.4376 78.156 71.4125Z" fill="#CA4D57"/>
<path d="M86.2767 76.9025C83.952 82.577 81.1742 87.9805 77.9918 93.0135C82.1894 89.3412 85.4401 83.0754 86.2767 76.9025Z" fill="#CA4D57"/>
<path d="M136.351 2.31641L132.949 0.0397733C132.719 -0.114025 132.474 0.21091 132.685 0.389399L135.811 3.0326L148.296 12.4419L148.836 11.7257L136.351 2.31641Z" fill="#7873B4"/>
<path d="M150.536 11.6005C149.762 11.0177 148.663 11.1721 148.081 11.9454C147.498 12.7187 147.653 13.8181 148.425 14.4009C149.199 14.9838 150.298 14.8293 150.881 14.056C151.464 13.2827 151.309 12.1834 150.536 11.6005Z" fill="#FAB11B"/>
<path d="M148.992 14.3213C149.296 14.5506 149.65 14.6653 150.005 14.6737C149.484 14.8363 148.894 14.7545 148.425 14.4009C147.653 13.8181 147.498 12.7187 148.081 11.9454C148.434 11.4762 148.978 11.2354 149.523 11.2482C149.185 11.3537 148.877 11.5616 148.647 11.8658C148.064 12.6391 148.219 13.7386 148.992 14.3213Z" fill="#F47415"/>
<path d="M149.658 13.1241C149.699 13.6098 149.979 13.983 150.285 13.9577C150.589 13.9325 150.805 13.5183 150.765 13.0327C150.725 12.547 150.445 12.1738 150.139 12.199C149.834 12.2243 149.619 12.6384 149.658 13.1241Z" fill="#FBD551"/>
<path d="M73.9335 46.089C72.293 44.4488 72.293 41.7893 73.9335 40.1488C75.5739 38.5086 78.2335 38.5086 79.8726 40.1488C81.513 41.7893 81.513 44.4488 79.8726 46.089C78.2335 47.7295 75.5739 47.7295 73.9335 46.089ZM80.9154 39.1069C78.6997 36.8912 75.1063 36.8912 72.8906 39.1069C70.6749 41.3228 70.6749 44.9151 72.8906 47.1311C75.1063 49.3468 78.6997 49.3468 80.9154 47.1311C83.1311 44.9151 83.1311 41.3228 80.9154 39.1069Z" fill="#DD6D37"/>
<path d="M74.2986 45.7233C72.8604 44.285 72.8604 41.9531 74.2986 40.5148C75.7367 39.0765 78.0693 39.0765 79.5075 40.5148C80.9456 41.9531 80.9456 44.285 79.5075 45.7233C78.0693 47.1616 75.7367 47.1616 74.2986 45.7233ZM79.8726 40.1489C78.2335 38.5086 75.5739 38.5086 73.9334 40.1489C72.293 41.7893 72.293 44.4488 73.9334 46.0891C75.5739 47.7295 78.2335 47.7295 79.8726 46.0891C81.513 44.4488 81.513 41.7893 79.8726 40.1489Z" fill="#B54338"/>
<path d="M77.9866 43.6566C77.7199 43.3907 77.7199 42.9596 77.9866 42.6937C78.2519 42.4277 78.684 42.4277 78.9493 42.6937C79.2159 42.9596 79.2159 43.3907 78.9493 43.6566C78.684 43.9226 78.2519 43.9226 77.9866 43.6566ZM76.4775 45.1655C76.2122 44.8995 76.2122 44.4685 76.4775 44.2025C76.7441 43.9365 77.1749 43.9365 77.4402 44.2025C77.7068 44.4685 77.7068 44.8995 77.4402 45.1655C77.1749 45.4314 76.7441 45.4314 76.4775 45.1655ZM76.3658 42.0355C76.0992 41.7696 76.0992 41.3384 76.3658 41.0724C76.6311 40.8065 77.0619 40.8065 77.3286 41.0724C77.5939 41.3384 77.5939 41.7696 77.3286 42.0355C77.0619 42.3015 76.6311 42.3015 76.3658 42.0355ZM74.8568 43.5444C74.5901 43.2784 74.5901 42.8472 74.8568 42.5812C75.1221 42.3154 75.5542 42.3154 75.8195 42.5812C76.0861 42.8472 76.0861 43.2784 75.8195 43.5444C75.5542 43.8103 75.1221 43.8103 74.8568 43.5444ZM79.5075 40.5148C78.0693 39.0765 75.7367 39.0765 74.2986 40.5148C72.8604 41.953 72.8604 44.285 74.2986 45.7233C75.7367 47.1616 78.0693 47.1616 79.5075 45.7233C80.9456 44.285 80.9456 41.953 79.5075 40.5148Z" fill="#DD6D37"/>
<path d="M85.1682 9.76162C84.8424 10.007 84.4839 10.0946 84.1608 10.008C84.1266 9.99881 84.0938 9.98791 84.061 9.97517C83.7825 9.86656 83.554 9.62778 83.4109 9.29195C83.2322 8.87416 83.2073 8.36812 83.3412 7.86719C83.4752 7.36613 83.7484 6.93981 84.1122 6.66649C84.4379 6.42115 84.7952 6.33367 85.1196 6.42009C85.4427 6.50677 85.7093 6.76079 85.8695 7.13615C86.0481 7.55394 86.0718 8.05999 85.9378 8.56091V8.56105C85.8039 9.06198 85.5307 9.4883 85.1682 9.76162ZM84.3959 13.6791C84.6743 12.4103 85.5832 11.2175 86.3634 9.97045C86.4868 9.8043 86.5958 9.62385 86.6878 9.43183C86.6878 9.4317 86.6878 9.43156 86.6878 9.43143C86.7797 9.23863 86.8559 9.03439 86.9123 8.82123C87.1041 8.10359 87.0634 7.36468 86.7981 6.74056C86.5459 6.14993 86.1217 5.72164 85.5898 5.51452C85.5215 5.48785 85.4519 5.46487 85.3796 5.44569C84.7492 5.27731 84.0833 5.4248 83.5054 5.86072C82.963 6.26905 82.5585 6.88911 82.3667 7.60674C82.175 8.32451 82.2629 9.04569 82.4823 9.68754C82.6254 10.106 82.9262 10.4082 83.2243 10.6176C83.7051 10.9539 83.9612 11.5266 83.8692 12.1058L83.6617 13.4176L79.9133 27.4569C79.9133 27.4569 83.3123 24.7955 84.606 20.0841C85.901 15.3727 84.0767 15.1293 84.3959 13.6791Z" fill="#5C627E"/>
<path d="M83.7655 12.7642L83.6617 13.4176L83.4253 14.3016C83.7327 14.2232 84.0466 14.1698 84.3631 14.1417C84.3513 13.9977 84.3591 13.8465 84.3959 13.6791C84.4813 13.2882 84.6284 12.9046 84.8109 12.5242C84.4734 12.6448 84.1214 12.726 83.7655 12.7642Z" fill="#474F65"/>
<path d="M89.0886 11.9145C89.5969 11.8122 90.1012 11.868 90.5071 12.072C90.8709 12.2551 91.1086 12.5371 91.1743 12.8654C91.2413 13.1942 91.1309 13.5459 90.8656 13.8557C90.5701 14.2008 90.1275 14.4471 89.6192 14.5496C89.111 14.6519 88.6079 14.5959 88.2021 14.3921C87.8751 14.2282 87.6518 13.9854 87.5598 13.7005C87.5493 13.6671 87.5415 13.6331 87.5336 13.5986C87.4679 13.27 87.5769 12.9182 87.8422 12.6083C88.1377 12.2634 88.5803 12.017 89.0886 11.9145ZM77.5059 12.5253C72.7225 13.5234 69.854 16.7496 69.854 16.7496L84.1004 13.8844L85.4216 13.7583C86.0061 13.7026 86.5617 13.9944 86.8677 14.4948C87.0568 14.8062 87.3405 15.1242 87.749 15.2935C88.3755 15.5531 89.0899 15.685 89.8189 15.5383C90.5465 15.3917 91.1914 15.027 91.6327 14.5116C92.1029 13.9611 92.292 13.3058 92.1633 12.6664C92.1488 12.5934 92.1304 12.522 92.1081 12.452C91.9347 11.9086 91.5328 11.4588 90.9589 11.1706C90.3534 10.866 89.6179 10.7791 88.8903 10.9258C88.6736 10.9693 88.4648 11.0325 88.2664 11.1127V11.1128C88.0694 11.1928 87.8816 11.29 87.7083 11.4028C86.4159 12.103 85.1682 12.9356 83.885 13.1349C82.4166 13.3629 82.2879 11.5272 77.5059 12.5253Z" fill="#5C627E"/>
<path d="M83.9756 13.354C84.0636 13.3259 84.1582 13.3745 84.1858 13.4628C84.2147 13.5509 84.1661 13.6452 84.0781 13.6734C83.9901 13.7017 83.8955 13.653 83.8666 13.5648C83.8391 13.4766 83.8877 13.3823 83.9756 13.354Z" fill="#D8D0C4"/>
<path d="M177.76 63.5135C177.281 64.1922 176.341 64.3557 175.663 63.8783L170.238 60.0614C169.56 59.5839 169.396 58.6435 169.873 57.965L173.691 52.5401C174.167 51.8616 175.108 51.6979 175.787 52.1755L181.211 55.9923C181.89 56.4697 182.053 57.4102 181.576 58.0887L177.76 63.5135ZM181.92 54.9855L176.495 51.1686C175.259 50.2991 173.553 50.596 172.683 51.8317L168.867 57.2566C167.997 58.4922 168.294 60.1988 169.53 61.0682L174.954 64.8851C176.19 65.7546 177.896 65.4578 178.766 64.222L182.582 58.7972C183.453 57.5615 183.155 55.8549 181.92 54.9855Z" fill="#F35C72"/>
<path d="M177.225 58.3438C176.89 58.1083 176.81 57.6461 177.045 57.3115C177.281 56.9768 177.742 56.8964 178.077 57.1318C178.412 57.3673 178.492 57.8296 178.257 58.1641C178.022 58.4988 177.56 58.5793 177.225 58.3438ZM175.676 60.5438C175.343 60.3085 175.261 59.8462 175.498 59.5115C175.733 59.1769 176.195 59.0965 176.53 59.332C176.864 59.5675 176.945 60.0297 176.709 60.3642C176.474 60.6988 176.011 60.7793 175.676 60.5438ZM174.92 56.7217C174.585 56.4863 174.505 56.0241 174.74 55.6896C174.975 55.3548 175.437 55.2743 175.772 55.5098C176.107 55.7452 176.187 56.2076 175.952 56.5422C175.716 56.8769 175.255 56.9572 174.92 56.7217ZM173.371 58.9218C173.037 58.6865 172.956 58.2241 173.192 57.8896C173.428 57.555 173.89 57.4745 174.224 57.7099C174.559 57.9453 174.639 58.4076 174.404 58.7423C174.169 59.0769 173.706 59.1573 173.371 58.9218ZM181.211 55.9923L175.787 52.1755C175.108 51.6979 174.167 51.8616 173.691 52.5401L169.873 57.965C169.396 58.6435 169.56 59.5839 170.238 60.0614L175.663 63.8783C176.341 64.3557 177.281 64.1922 177.759 63.5136L181.576 58.0887C182.053 57.4102 181.89 56.4697 181.211 55.9923Z" fill="#DC5260"/>
<path d="M174.278 54.9768C174.741 54.5392 175.443 54.4291 176.018 54.7057C176.156 54.7722 176.278 54.8549 176.384 54.95C176.705 55.235 177.17 55.2945 177.561 55.1215C177.587 55.1098 177.614 55.0979 177.64 55.0855C177.87 54.9784 177.891 54.6599 177.685 54.5143L175.314 52.8466C175.005 52.6292 174.578 52.7034 174.362 53.0123L172.758 55.292C172.604 55.5092 172.755 55.8066 173.021 55.8168C173.026 55.817 173.03 55.8171 173.035 55.8174C173.431 55.8319 173.809 55.6344 174.016 55.2972C174.086 55.1834 174.173 55.0756 174.278 54.9768Z" fill="#F35C72"/>
<path d="M179.401 83.527C179.873 88.6809 183.083 93.4118 187.497 96.0671V67.9546C182.22 71.1003 178.836 77.372 179.401 83.527Z" fill="#FDC3C9"/>
</svg>
