<svg width="798" height="611" viewBox="0 0 798 611" fill="none" xmlns="http://www.w3.org/2000/svg">
<g clip-path="url(#clip0_66_2)">
<path d="M758.124 393.34C740.844 422.887 717.497 448.367 689.697 469.793C679.217 477.9 668.111 485.407 656.444 492.34C655.297 493.033 654.137 493.713 652.977 494.38C634.351 505.193 614.377 514.566 593.391 522.513C591.204 523.354 588.991 524.166 586.777 524.966C585.084 525.58 583.391 526.18 581.684 526.766C581.537 526.82 581.377 526.873 581.217 526.926C573.991 529.433 566.657 531.78 559.231 533.954C556.804 534.673 554.377 535.366 551.924 536.033C547.484 537.273 543.004 538.447 538.497 539.554C536.111 540.154 533.711 540.726 531.311 541.287C513.484 545.447 495.244 548.713 476.737 551.1C276.364 576.966 46.6303 499.593 3.75002 324.673C-9.0229 272.593 12.537 240.74 42.6703 220.647C57.6568 210.647 74.7901 203.553 90.8568 198.34C91.5505 198.1 92.2568 197.873 92.9505 197.66C92.9771 197.647 93.0036 197.647 93.0303 197.633C106.804 193.273 119.683 190.26 129.644 187.94C129.644 187.94 130.151 186.767 131.204 184.62C143.217 160.087 225.751 7.53997 424.337 0.166635C549.204 -4.47336 556.231 86.5666 605.351 126.833H605.364C618.391 137.513 634.377 144.62 656.311 145.42H656.324C657.217 145.46 658.137 145.473 659.044 145.487H659.057C660.271 145.5 661.497 145.5 662.751 145.473C663.364 145.473 664.004 145.447 664.631 145.42C664.844 145.42 665.044 145.42 665.257 145.407C665.271 145.42 665.284 145.42 665.297 145.407C666.191 145.38 667.084 145.327 668.004 145.273C668.017 145.287 668.031 145.273 668.031 145.273C668.631 145.247 669.244 145.193 669.844 145.153C671.457 145.033 673.111 144.887 674.791 144.7H674.804C674.951 144.7 675.097 144.673 675.244 144.66C676.564 144.513 677.857 144.393 679.151 144.273H679.164C681.791 144.06 684.364 143.927 686.911 143.847H686.924C701.431 143.433 714.724 145.34 726.671 149.287C802.364 174.207 824.084 280.54 758.124 393.34Z" fill="#FEE799"/>
<path d="M559.231 533.954C556.804 534.673 554.377 535.367 551.924 536.033C547.484 537.273 543.004 538.447 538.497 539.554C536.111 540.154 533.711 540.726 531.311 541.287C513.484 545.447 495.244 548.713 476.737 551.1C456.911 544.513 438.351 532.38 427.871 511.7C427.871 511.7 437.151 506.513 451.897 503.607L451.937 503.673C453.111 505.887 455.204 506.913 457.284 506.913C459.977 506.913 462.657 505.18 463.284 502.02C473.337 499.38 484.057 499.58 494.884 501.754C517.604 506.313 540.777 519.633 559.231 533.954Z" fill="#09949D"/>
<path d="M459.777 517.607C456.124 516.766 452.937 516.033 452.19 515.793C451.524 515.447 450.684 515.487 450.044 515.98C449.177 516.647 449.004 517.913 449.684 518.78C450.244 519.513 450.244 519.513 458.884 521.5C473.084 524.78 503.63 531.82 531.31 541.287C533.71 540.726 536.11 540.154 538.497 539.554C509.137 528.98 475.07 521.126 459.777 517.607Z" fill="#ECECEC"/>
<path d="M586.777 524.966C585.084 525.58 583.391 526.18 581.684 526.766C581.791 526.82 581.884 526.887 581.991 526.94C581.724 526.94 581.471 526.94 581.217 526.926C581.204 526.926 581.177 526.94 581.151 526.953C579.177 527.633 577.191 528.3 575.204 528.966C569.937 530.713 564.604 532.38 559.231 533.953C556.804 534.673 554.377 535.366 551.924 536.033C532.911 529.153 511.564 518.46 494.884 501.753C478.231 485.1 466.217 462.42 465.817 431.567C465.817 431.567 480.377 430.793 500.271 436.127L500.471 443.02C500.631 448.593 507.724 450.873 511.111 446.447L515.217 441.047C535.844 449.167 559.284 464.14 577.844 491.713C583.284 499.78 588.297 508.913 592.711 519.287L593.391 522.513C591.204 523.353 588.991 524.166 586.777 524.966Z" fill="#1AB3B9"/>
<path d="M575.751 518.793C528.017 490.766 484.871 448.807 482.631 445.98C482.231 445.22 481.351 444.78 480.471 444.953C479.377 445.167 478.684 446.233 478.897 447.313C479.471 450.127 526.817 495.02 575.404 523.22C577.497 524.433 579.591 525.62 581.684 526.766C583.391 526.18 585.084 525.58 586.777 524.966C583.084 523.007 579.404 520.94 575.751 518.793Z" fill="#ECECEC"/>
<path d="M677.377 247.753C672.697 247.753 668.884 243.94 668.884 239.26C668.884 234.58 672.697 230.767 677.377 230.767C682.057 230.767 685.87 234.58 685.87 239.26C685.87 243.94 682.057 247.753 677.377 247.753ZM677.377 226.767C670.497 226.767 664.884 232.367 664.884 239.26C664.884 246.14 670.497 251.753 677.377 251.753C684.27 251.753 689.87 246.14 689.87 239.26C689.87 232.367 684.27 226.767 677.377 226.767Z" fill="#ECECEC"/>
<path d="M735.042 296.717C733.936 296.717 733.042 295.823 733.042 294.717V278.381C733.042 277.276 733.936 276.381 735.042 276.381C736.146 276.381 737.042 277.276 737.042 278.381V294.717C737.042 295.823 736.146 296.717 735.042 296.717Z" fill="#ECECEC"/>
<path d="M743.209 288.549H726.875C725.769 288.549 724.875 287.655 724.875 286.549C724.875 285.444 725.769 284.549 726.875 284.549H743.209C744.313 284.549 745.209 285.444 745.209 286.549C745.209 287.655 744.313 288.549 743.209 288.549Z" fill="#ECECEC"/>
<path d="M136.39 344.02C135.857 346.22 134.51 348.087 132.577 349.273C128.577 351.727 123.337 350.46 120.897 346.473C118.457 342.473 119.71 337.247 123.697 334.793C127.697 332.353 132.923 333.607 135.377 337.607C136.564 339.54 136.924 341.807 136.39 344.02ZM138.79 335.513C135.19 329.633 127.484 327.793 121.603 331.38C117.763 333.74 115.644 337.847 115.644 342.06C115.644 344.287 116.244 346.527 117.484 348.567C119.23 351.407 121.977 353.407 125.217 354.18C126.19 354.42 127.176 354.527 128.163 354.527C130.43 354.527 132.67 353.9 134.657 352.687C137.51 350.94 139.497 348.193 140.284 344.953C141.057 341.713 140.524 338.353 138.79 335.513Z" fill="#ECECEC"/>
<path d="M58.5313 340.803C57.8579 340.803 57.2011 340.463 56.8241 339.848L48.2897 325.92C47.7121 324.977 48.0079 323.747 48.9495 323.168C49.8918 322.593 51.1235 322.888 51.6995 323.828L60.2345 337.757C60.8115 338.7 60.5162 339.931 59.5741 340.508C59.2479 340.708 58.887 340.803 58.5313 340.803Z" fill="#ECECEC"/>
<path d="M47.2989 338.105C46.626 338.105 45.9693 337.767 45.5921 337.152C45.0145 336.209 45.3104 334.979 46.2527 334.4L60.1812 325.865C61.1235 325.289 62.3547 325.585 62.9312 326.525C63.5088 327.468 63.2136 328.699 62.2713 329.276L48.3421 337.812C48.0161 338.011 47.6552 338.105 47.2989 338.105Z" fill="#ECECEC"/>
<path d="M151.408 233.396C151.408 233.396 185.89 224.488 190.726 226.575C195.56 228.661 203.264 260.909 200.927 261.701C198.59 262.495 187.478 251.397 187.478 251.397C187.478 251.397 184.738 256.887 180.426 255.061C176.112 253.235 171.434 245.604 171.434 245.604C171.434 245.604 170.22 249.344 165.783 247.767C161.346 246.191 155.49 237.647 155.49 237.647L151.408 233.396Z" fill="#ECECEC"/>
<path d="M65.0376 187.184C65.0376 187.184 46.9548 156.503 42.06 154.56C37.1657 152.616 8.91521 169.972 10.0079 172.184C11.1001 174.397 26.8037 174.409 26.8037 174.409C26.8037 174.409 24.86 180.227 29.2001 181.985C33.5402 183.744 42.2454 181.657 42.2454 181.657C42.2454 181.657 40.4594 185.159 44.711 187.181C48.9632 189.205 59.146 187.304 59.146 187.304L65.0376 187.184Z" fill="#ECECEC"/>
<path d="M170.287 208.053L141.132 266.465C140.267 268.199 138.16 268.908 136.42 268.04L44.1022 221.963C42.3683 221.097 41.6683 218.988 42.5339 217.253L71.6875 158.841C71.8834 158.449 72.1484 158.105 72.4599 157.825C73.4912 156.867 75.0527 156.595 76.3938 157.264L168.712 203.34C170.053 204.009 170.773 205.421 170.635 206.824C170.597 207.243 170.483 207.66 170.287 208.053Z" fill="#CA4D57"/>
<path d="M47.334 218.139L101.91 213.072C104.668 212.816 107.336 214.135 108.806 216.483L138.259 263.52L111.191 213.771C109.728 210.884 106.548 209.297 103.363 209.864L47.334 218.139Z" fill="#81383F"/>
<path d="M170.464 207.167L103.668 218.148L72.2886 158.168C73.4198 157.009 75.0527 156.595 76.3938 157.264L168.712 203.34C170.053 204.009 170.703 205.564 170.464 207.167Z" fill="#F35C72"/>
<path d="M74.2363 161.891L101.534 213.827C102.876 216.407 105.533 217.747 108.403 217.291L165.891 208.157L107.404 221.357C104.072 222.216 100.892 220.629 99.5759 217.451L74.2363 161.891Z" fill="#81383F"/>
<path d="M713.958 125.604C713.958 125.604 733.229 95.6546 738.196 93.904C743.163 92.1546 770.712 110.603 769.533 112.771C768.355 114.94 752.663 114.336 752.663 114.336C752.663 114.336 754.377 120.225 749.972 121.813C745.567 123.4 736.949 120.973 736.949 120.973C736.949 120.973 738.597 124.543 734.269 126.397C729.941 128.253 719.841 125.955 719.841 125.955L713.958 125.604Z" fill="#ECECEC"/>
<path d="M619.169 150.311C619.169 150.311 585.063 140.059 580.149 141.955C575.236 143.851 566.276 175.772 568.58 176.656C570.885 177.539 582.422 166.887 582.422 166.887C582.422 166.887 584.945 172.477 589.327 170.823C593.707 169.167 598.681 161.725 598.681 161.725C598.681 161.725 599.748 165.509 604.242 164.108C608.738 162.707 614.924 154.399 614.924 154.399L619.169 150.311Z" fill="#ECECEC"/>
<path d="M710.614 94.1799L728.864 156.861C729.405 158.721 728.34 160.673 726.473 161.217L627.408 190.059C625.548 190.6 623.601 189.527 623.06 187.665L604.811 124.985C604.688 124.564 604.649 124.132 604.686 123.713C604.794 122.311 605.756 121.051 607.194 120.632L706.26 91.7893C707.699 91.3706 709.187 91.9173 710.036 93.0426C710.293 93.3733 710.492 93.7586 710.614 94.1799Z" fill="#CA4D57"/>
<path d="M627.186 185.057L663.818 144.285C665.668 142.224 668.523 141.383 671.196 142.108L724.755 156.651L671.106 138.497C668.072 137.372 664.66 138.365 662.706 140.943L627.186 185.057Z" fill="#81383F"/>
<path d="M710.144 93.4093L668.554 146.819L604.795 124.083C604.839 122.464 605.756 121.051 607.195 120.632L706.259 91.7893C707.699 91.3706 709.231 92.0706 710.144 93.4093Z" fill="#F35C72"/>
<path d="M608.752 125.493L664.053 145.095C666.791 146.077 669.651 145.257 671.448 142.975L707.459 97.2413L673.476 146.639C671.613 149.532 668.2 150.525 665.076 149.084L608.752 125.493Z" fill="#81383F"/>
<path d="M251.397 470.821C251.397 470.821 276.508 463.049 280.147 464.419C283.784 465.789 290.589 489.295 288.895 489.96C287.199 490.626 278.619 482.833 278.619 482.833C278.619 482.833 276.791 486.976 273.548 485.78C270.304 484.585 266.588 479.123 266.588 479.123C266.588 479.123 265.824 481.921 262.497 480.914C259.172 479.908 254.556 473.813 254.556 473.813L251.397 470.821Z" fill="#ECECEC"/>
<path d="M186.107 439.769C186.107 439.769 171.703 417.781 168.027 416.519C164.351 415.257 144.129 429.04 145.012 430.633C145.895 432.227 157.472 431.687 157.472 431.687C157.472 431.687 156.243 436.044 159.504 437.188C162.765 438.333 169.111 436.491 169.111 436.491C169.111 436.491 167.916 439.135 171.121 440.477C174.327 441.82 181.767 440.064 181.767 440.064L186.107 439.769Z" fill="#ECECEC"/>
<path d="M264.431 451.477L244.978 495.561C244.4 496.869 242.872 497.465 241.559 496.887L171.887 466.141C170.579 465.564 169.988 464.033 170.567 462.724L190.02 418.641C190.151 418.344 190.334 418.083 190.554 417.864C191.28 417.123 192.422 416.867 193.435 417.313L263.106 448.059C264.118 448.505 264.699 449.521 264.644 450.56C264.632 450.869 264.562 451.181 264.431 451.477Z" fill="#CA4D57"/>
<path d="M174.136 463.209L214.196 457.567C216.22 457.281 218.232 458.161 219.399 459.84L242.756 493.49L221.062 457.757C219.883 455.681 217.483 454.621 215.155 455.151L174.136 463.209Z" fill="#81383F"/>
<path d="M264.53 450.819L215.668 461.248L190.438 418.123C191.232 417.231 192.421 416.867 193.434 417.313L263.105 448.059C264.117 448.505 264.65 449.629 264.53 450.819Z" fill="#F35C72"/>
<path d="M192.005 420.8L213.944 458.136C215.024 459.991 217.031 460.887 219.129 460.449L261.193 451.708L218.535 463.483C216.109 464.233 213.709 463.173 212.628 460.876L192.005 420.8Z" fill="#81383F"/>
<path d="M224.354 171.261L378.908 56.5946C385.225 51.9079 393.874 51.9386 400.158 56.6706L552.368 171.261H224.354Z" fill="#CA4D57"/>
<path d="M546.726 391.725H229.998C224.046 391.725 219.22 386.901 219.22 380.949V180.541C219.22 174.589 224.046 169.764 229.998 169.764H546.726C552.678 169.764 557.503 174.589 557.503 180.541V380.949C557.503 386.901 552.678 391.725 546.726 391.725Z" fill="#CA4D57"/>
<path d="M542.231 184.447L506.684 211.967L506.217 212.327L477.378 234.647L456.551 250.767L413.178 284.34L404.831 290.807L400.191 287.98C392.938 283.54 383.804 283.58 376.578 288.06L371.964 290.927L364.658 285.3L319.791 250.767L298.844 234.647L269.858 212.327L264.551 208.247L233.631 184.447H542.231Z" fill="#ECECEC"/>
<path d="M545.578 376.793L404.831 290.807L400.191 287.98C392.938 283.54 383.804 283.58 376.578 288.06L371.964 290.927L233.631 376.793L364.658 285.3L376.178 277.26C384.138 271.327 395.058 271.327 403.031 277.26L413.178 284.34L545.578 376.793Z" fill="#81383F"/>
<path d="M542.228 83.9639H233.625V184.452H542.228V83.9639Z" fill="#ECECEC"/>
<path d="M506.687 135.469H264.547V119.353H506.687V135.469Z" fill="#FEE799"/>
<path d="M506.687 173.9H264.547V157.784H506.687V173.9Z" fill="#FEE799"/>
<path d="M506.684 196.22V211.967L506.217 212.327H269.857L264.551 208.247V196.22H506.684Z" fill="#FEE799"/>
<path d="M477.377 234.647L456.55 250.767H319.79L298.844 234.647H477.377Z" fill="#FEE799"/>
<path d="M594.334 339.824C605.737 335.903 599.654 316.259 615.876 304.231C633.001 291.532 638.931 308.523 638.931 308.523C638.931 308.523 653.365 298.329 668.339 311.589C677.589 319.78 688.891 339.868 674.22 367.583C661.499 391.616 692.984 401.6 671.473 415.568C653.073 427.516 601.634 406.628 601.634 406.628C601.634 406.628 542.23 357.741 594.334 339.824Z" fill="#313151"/>
<path d="M635.589 368.859L625.536 417.769L600.928 412.711L610.981 363.8L635.589 368.859Z" fill="#F8A084"/>
<path d="M635.589 368.859L632.004 386.301C623.943 391.633 614.703 397.728 604.4 395.816L610.548 365.904C611.289 365.303 612.025 364.723 612.8 364.175L635.589 368.859Z" fill="#F57E74"/>
<path d="M622.441 313.828C622.441 313.828 592.247 338.763 594.979 373.069C595.165 375.404 596.536 377.483 598.621 378.549C606.153 382.404 624.939 390.724 633.327 382.725C643.951 372.597 665.396 345.928 656.943 333.856C648.488 321.784 622.441 313.828 622.441 313.828Z" fill="#F8A084"/>
<path d="M639.795 360.067C639.795 360.067 658.237 356.871 661.631 368.901C665.024 380.933 637.899 384.627 637.383 373.751C636.867 362.875 639.795 360.067 639.795 360.067Z" fill="#F8A084"/>
<path d="M607.169 331.123C607.169 331.123 614.087 319.335 617.573 324.864C621.061 330.393 622.408 338.859 639.961 336.54C653.293 334.779 643.783 364.211 643.783 364.211C643.783 364.211 652.044 358.836 658.564 363.807C658.564 363.807 669.471 332.704 659.088 325.303C648.705 317.9 622.553 306.677 617.461 311.669C612.368 316.66 607.169 331.123 607.169 331.123Z" fill="#313151"/>
<path d="M612.833 342.903C611.792 344.493 610.337 345.385 609.585 344.893C608.833 344.4 609.067 342.712 610.108 341.12C611.149 339.528 612.604 338.637 613.356 339.129C614.108 339.621 613.875 341.311 612.833 342.903Z" fill="#313151"/>
<path d="M629.705 354.165C628.664 355.757 627.211 356.648 626.457 356.156C625.705 355.664 625.94 353.975 626.981 352.383C628.023 350.792 629.476 349.9 630.228 350.393C630.98 350.885 630.747 352.575 629.705 354.165Z" fill="#313151"/>
<path d="M606.623 359.713C607.111 359.883 622.967 366.067 622.967 366.067C622.967 366.067 606.305 383.299 607.111 359.883L606.623 359.713Z" fill="#ECECEC"/>
<path d="M689.697 469.793C679.217 477.9 668.111 485.407 656.444 492.34C655.297 493.033 654.137 493.713 652.977 494.38C634.351 505.193 614.377 514.566 593.391 522.513C591.204 523.354 588.991 524.166 586.777 524.966C585.084 525.58 583.391 526.18 581.684 526.766C581.791 526.82 581.884 526.887 581.991 526.94C581.724 526.94 581.471 526.94 581.217 526.926C581.204 526.926 581.177 526.94 581.151 526.953C579.177 527.633 577.191 528.3 575.204 528.966L575.404 523.22L575.751 518.793L577.844 491.713L579.457 470.993L580.471 457.993L581.711 441.887L583.417 414.873C584.377 408.527 591.124 404.393 596.551 402.06C600.271 400.46 603.377 399.7 603.604 399.647C603.617 399.647 603.617 399.647 603.617 399.647C603.711 400.06 607.977 419.273 628.604 401.767L628.817 401.82L644.124 405.287C648.404 406.26 652.177 408.74 654.791 412.26C655.391 413.073 657.071 415.513 659.431 419.087C666.564 429.86 680.004 451.033 689.697 469.793Z" fill="#7772B6"/>
<path d="M603.612 399.652C603.612 399.652 551.881 384.481 545.572 376.793C539.264 369.105 500.597 321.057 500.597 321.057L469.981 342.011L516.575 419.533C540.007 444.551 594.261 464.037 596.873 463.307C599.487 462.575 603.612 399.652 603.612 399.652Z" fill="#7772B6"/>
<path d="M469.981 342.011L437.183 320.183C435.54 319.089 435.729 316.621 437.524 315.8C444.667 312.529 457.211 309.651 460.381 309.992C464.645 310.452 481.855 314.54 481.855 314.54L480.28 306.829C479.88 304.873 481.08 302.947 483.011 302.44C485.695 301.737 488.528 302.82 490.059 305.133L500.597 321.057L469.981 342.011Z" fill="#F8A084"/>
<path d="M640.929 372.176C640.929 372.176 646.436 374.129 646.591 370.643C646.679 368.667 643.678 368.075 643.678 368.075C643.678 368.075 653.597 363.741 655.82 368.741C658.042 373.743 649.597 379.612 640.929 372.176Z" fill="#F57E74"/>
<path d="M638.048 434.865C636.958 434.865 636.066 433.989 636.048 432.895C635.802 416.197 642.907 411.221 643.211 411.019C644.127 410.403 645.37 410.645 645.986 411.561C646.598 412.469 646.363 413.699 645.466 414.321C645.319 414.432 639.838 418.667 640.048 432.835C640.064 433.939 639.183 434.848 638.079 434.865C638.068 434.865 638.058 434.865 638.048 434.865Z" fill="#54538F"/>
<path d="M656.444 492.34C655.298 493.033 654.138 493.713 652.978 494.38C645.111 475.7 636.284 454.633 636.284 440.78C636.284 439.687 637.178 438.78 638.284 438.78C639.391 438.78 640.284 439.687 640.284 440.78C640.284 453.7 648.778 474.127 656.444 492.34Z" fill="#54538F"/>
<path d="M439.108 391.725C439.108 419.069 416.941 441.235 389.599 441.235C362.256 441.235 340.089 419.069 340.089 391.725C340.089 364.383 362.256 342.216 389.599 342.216C416.941 342.216 439.108 364.383 439.108 391.725Z" fill="#7772B6"/>
<path d="M396.645 369.748V410.561H388.016V377.939H387.777L378.431 383.798V376.145L388.535 369.748H396.645Z" fill="#ECECEC"/>
</g>
<defs>
<clipPath id="clip0_66_2">
<rect width="797.36" height="610.373" fill="white"/>
</clipPath>
</defs>
</svg>
